<svg width="10" height="48" viewBox="0 0 10 48" fill="none" xmlns="http://www.w3.org/2000/svg">
<g clip-path="url(#clip0_1103_26285)">
<path d="M-89.3211 1.6842C-88.5709 0.627676 -87.3554 0 -86.0596 0H220.245C221.622 0 222.903 0.70868 223.634 1.87581L236.169 21.8758C236.983 23.1749 236.983 24.8251 236.169 26.1242L223.634 46.1242C222.903 47.2913 221.622 48 220.245 48H-86.0596C-87.3554 48 -88.5709 47.3723 -89.3211 46.3158L-103.522 26.3158C-104.507 24.929 -104.507 23.071 -103.522 21.6842L-89.3211 1.6842Z" fill="#C4C4C4"/>
<path d="M-89.3211 1.6842C-88.5709 0.627676 -87.3554 0 -86.0596 0H220.245C221.622 0 222.903 0.70868 223.634 1.87581L236.169 21.8758C236.983 23.1749 236.983 24.8251 236.169 26.1242L223.634 46.1242C222.903 47.2913 221.622 48 220.245 48H-86.0596C-87.3554 48 -88.5709 47.3723 -89.3211 46.3158L-103.522 26.3158C-104.507 24.929 -104.507 23.071 -103.522 21.6842L-89.3211 1.6842Z" fill="url(#paint0_linear_1103_26285)"/>
<path d="M-85.2455 4.5H218.509C218.68 4.5 218.839 4.58715 218.931 4.73112L231.05 23.7311C231.154 23.8951 231.154 24.1049 231.05 24.2689L218.931 43.2689C218.839 43.4129 218.68 43.5 218.509 43.5H-85.2455C-85.4065 43.5 -85.5577 43.4224 -85.6516 43.2916L-99.2939 24.2916C-99.419 24.1173 -99.419 23.8827 -99.2939 23.7084L-85.6516 4.70838C-85.5577 4.57757 -85.4065 4.5 -85.2455 4.5Z" fill="url(#paint1_linear_1103_26285)" stroke="white" stroke-width="3"/>
</g>
<defs>
<linearGradient id="paint0_linear_1103_26285" x1="-19.3963" y1="-4.27055" x2="-19.3963" y2="52.4785" gradientUnits="userSpaceOnUse">
<stop stop-color="#8756FF"/>
<stop offset="0.950276" stop-color="#7A52FF"/>
</linearGradient>
<linearGradient id="paint1_linear_1103_26285" x1="-31.5473" y1="3" x2="-31.5473" y2="45" gradientUnits="userSpaceOnUse">
<stop stop-color="#721DAC"/>
<stop offset="0.5" stop-color="#8F3EE7"/>
<stop offset="1" stop-color="#721DAC"/>
</linearGradient>
<clipPath id="clip0_1103_26285">
<rect width="10" height="48" fill="white"/>
</clipPath>
</defs>
</svg>
