<svg width="44" height="48" viewBox="0 0 44 48" fill="none" xmlns="http://www.w3.org/2000/svg">
<g clip-path="url(#clip0_1103_26291)">
<path d="M143.655 1.73036C142.908 0.646987 141.677 0 140.361 0H18.6392C17.3235 0 16.092 0.64699 15.3454 1.73037L1.56394 21.7304C0.622269 23.0969 0.622271 24.9031 1.56394 26.2696L15.3454 46.2696C16.092 47.353 17.3235 48 18.6392 48H140.361C141.676 48 142.908 47.353 143.655 46.2696L157.436 26.2696C158.378 24.9031 158.378 23.0969 157.436 21.7304L143.655 1.73036Z" fill="#C4C4C4"/>
<path d="M143.655 1.73036C142.908 0.646987 141.677 0 140.361 0H18.6392C17.3235 0 16.092 0.64699 15.3454 1.73037L1.56394 21.7304C0.622269 23.0969 0.622271 24.9031 1.56394 26.2696L15.3454 46.2696C16.092 47.353 17.3235 48 18.6392 48H140.361C141.676 48 142.908 47.353 143.655 46.2696L157.436 26.2696C158.378 24.9031 158.378 23.0969 157.436 21.7304L143.655 1.73036Z" fill="url(#paint0_linear_1103_26291)"/>
<path d="M139.118 4.50391H19.8815C19.7192 4.50391 19.567 4.58272 19.4733 4.71527L6.04105 23.7153C5.91875 23.8883 5.91875 24.1195 6.04105 24.2925L19.4733 43.2925C19.567 43.4251 19.7192 43.5039 19.8815 43.5039H139.118C139.281 43.5039 139.433 43.4251 139.527 43.2925L152.959 24.2925C153.081 24.1195 153.081 23.8883 152.959 23.7153L139.527 4.71527C139.433 4.58272 139.281 4.50391 139.118 4.50391Z" fill="url(#paint1_linear_1103_26291)" stroke="white" stroke-width="3"/>
</g>
<defs>
<linearGradient id="paint0_linear_1103_26291" x1="66.8955" y1="-4.27055" x2="66.8955" y2="52.4785" gradientUnits="userSpaceOnUse">
<stop stop-color="#8756FF"/>
<stop offset="0.950276" stop-color="#7A52FF"/>
</linearGradient>
<linearGradient id="paint1_linear_1103_26291" x1="79.5" y1="3.00391" x2="79.5" y2="45.0039" gradientUnits="userSpaceOnUse">
<stop stop-color="#721DAC"/>
<stop offset="0.5" stop-color="#8F3EE7"/>
<stop offset="1" stop-color="#721DAC"/>
</linearGradient>
<clipPath id="clip0_1103_26291">
<rect width="44" height="48" fill="white" transform="matrix(-1 0 0 1 44 0)"/>
</clipPath>
</defs>
</svg>
