<svg width="44" height="48" viewBox="0 0 44 48" fill="none" xmlns="http://www.w3.org/2000/svg">
<g clip-path="url(#clip0_1103_26288)">
<path d="M28.6546 1.73036C27.908 0.646987 26.6765 0 25.3608 0H-96.3608C-97.6765 0 -98.908 0.64699 -99.6546 1.73037L-113.436 21.7304C-114.378 23.0969 -114.378 24.9031 -113.436 26.2696L-99.6546 46.2696C-98.908 47.353 -97.6765 48 -96.3608 48H25.3608C26.6765 48 27.908 47.353 28.6546 46.2696L42.4361 26.2696C43.3777 24.9031 43.3777 23.0969 42.4361 21.7304L28.6546 1.73036Z" fill="#C4C4C4"/>
<path d="M28.6546 1.73036C27.908 0.646987 26.6765 0 25.3608 0H-96.3608C-97.6765 0 -98.908 0.64699 -99.6546 1.73037L-113.436 21.7304C-114.378 23.0969 -114.378 24.9031 -113.436 26.2696L-99.6546 46.2696C-98.908 47.353 -97.6765 48 -96.3608 48H25.3608C26.6765 48 27.908 47.353 28.6546 46.2696L42.4361 26.2696C43.3777 24.9031 43.3777 23.0969 42.4361 21.7304L28.6546 1.73036Z" fill="url(#paint0_linear_1103_26288)"/>
<path d="M24.1185 4.50391H-95.1185C-95.2808 4.50391 -95.433 4.58272 -95.5267 4.71527L-108.959 23.7153C-109.081 23.8883 -109.081 24.1195 -108.959 24.2925L-95.5267 43.2925C-95.433 43.4251 -95.2808 43.5039 -95.1185 43.5039H24.1185C24.2808 43.5039 24.433 43.4251 24.5267 43.2925L37.959 24.2925C38.0813 24.1195 38.0813 23.8883 37.959 23.7153L24.5268 4.71527C24.433 4.58272 24.2808 4.50391 24.1185 4.50391Z" fill="url(#paint1_linear_1103_26288)" stroke="white" stroke-width="3"/>
</g>
<defs>
<linearGradient id="paint0_linear_1103_26288" x1="-48.1045" y1="-4.27055" x2="-48.1045" y2="52.4785" gradientUnits="userSpaceOnUse">
<stop stop-color="#8756FF"/>
<stop offset="0.950276" stop-color="#7A52FF"/>
</linearGradient>
<linearGradient id="paint1_linear_1103_26288" x1="-35.5" y1="3.00391" x2="-35.5" y2="45.0039" gradientUnits="userSpaceOnUse">
<stop stop-color="#721DAC"/>
<stop offset="0.5" stop-color="#8F3EE7"/>
<stop offset="1" stop-color="#721DAC"/>
</linearGradient>
<clipPath id="clip0_1103_26288">
<rect width="44" height="48" fill="white" transform="matrix(-1 0 0 1 44 0)"/>
</clipPath>
</defs>
</svg>
