<!-- <svg fill="#fff" viewBox="0 0 85 33" id="logo_mateAffiliate" xmlns="http://www.w3.org/2000/svg"><path d="M32.863 9.643v5.889h-2.04v-5.316c0-1.442-.843-2.312-2.215-2.312-1.608.06-2.569 1.304-2.569 2.944v4.684H24v-5.316c0-1.442-.824-2.312-2.196-2.312-1.628.06-2.608 1.304-2.608 2.944v4.684h-2.02V6.066h2.02v1.838c.647-1.324 1.843-1.897 3.412-1.897 1.666 0 2.823.83 3.255 2.273.608-1.581 1.843-2.273 3.568-2.273 2.157 0 3.432 1.383 3.432 3.636zm13.411-3.577v9.466h-2.02v-1.6c-.685 1.086-1.803 1.698-3.274 1.698-2.706 0-4.49-1.976-4.49-4.86 0-2.826 1.784-4.763 4.431-4.783 1.51-.02 2.667.593 3.353 1.68v-1.6h2zm-2.02 5.118v-.691c-.156-1.64-1.274-2.747-2.862-2.747-1.686 0-2.882 1.304-2.902 3.102.02 1.799 1.177 3.083 2.902 3.083 1.588-.02 2.706-1.126 2.863-2.747zm11.51 3.755c-.745.435-1.529.691-2.254.691-1.49 0-2.687-1.027-2.687-3.102V3.834h2.02v2.588h2.765v1.522h-2.765v4.209c0 1.126.372 1.6 1.04 1.6.372 0 .823-.138 1.372-.415l.51 1.6zm10.412-2.352 1.177 1.107c-1.06 1.304-2.432 1.917-4.06 1.917-2.901 0-4.881-1.937-4.881-4.802 0-2.766 1.823-4.762 4.706-4.802 2.548-.04 4.274 1.542 4.43 4.13l-6.823 2.055c.451 1.107 1.432 1.779 2.706 1.779 1.02 0 1.98-.475 2.745-1.384zm-5.745-1.897 5.157-1.521c-.431-1.067-1.235-1.522-2.353-1.522-1.706 0-2.804 1.067-2.804 3.043zM22.196 21.934v5.454h-.804v-1.166c-.412.751-1.137 1.205-2.098 1.205-1.549 0-2.627-1.146-2.627-2.786 0-1.62 1.058-2.766 2.588-2.766.98-.02 1.725.435 2.137 1.205v-1.146h.804zm-.804 2.944v-.415c-.098-1.106-.882-1.877-1.941-1.877-1.157 0-1.96.87-1.96 2.075s.823 2.075 1.96 2.075c1.059 0 1.843-.751 1.941-1.858zm4.549-3.517v.751h1.55v.632h-1.55v4.664h-.784V21.46c0-1.186.843-1.818 1.725-1.818.432.02.843.138 1.157.375l-.314.633a1.67 1.67 0 0 0-.823-.297c-.53 0-.96.356-.96 1.008zm5.118-1.739c.353.02.706.099.98.277l-.039.73c-.294-.157-.627-.276-.941-.276-.55 0-.96.336-.96.988v.751h1.548v.633h-1.53v4.663h-.784V21.44c-.02-1.205.844-1.818 1.726-1.818zm1.372.751c0-.316.236-.553.53-.553.294 0 .53.237.53.553a.534.534 0 0 1-.53.553.56.56 0 0 1-.53-.553zm.138 1.561h.784v5.454h-.784v-5.454zm5.098 4.743c.176 0 .372-.08.568-.238l.157.653a1.573 1.573 0 0 1-.921.316c-.647 0-1.118-.455-1.118-1.344v-6.363h.784v6.304c.02.454.216.672.53.672zm3.823-6.304a.534.534 0 0 1-.53.553.534.534 0 0 1-.529-.553c0-.316.236-.553.53-.553.294 0 .53.217.53.553zm-.117 1.561v5.454h-.785v-5.454h.785zm8.058 0v5.454h-.803v-1.166c-.412.751-1.138 1.205-2.099 1.205-1.549 0-2.627-1.146-2.627-2.786 0-1.62 1.059-2.766 2.588-2.766.98-.02 1.726.435 2.137 1.205v-1.146h.804zm-.803 2.944v-.415c-.099-1.106-.883-1.877-1.942-1.877-1.157 0-1.96.87-1.96 2.075s.823 2.075 1.96 2.075c1.06 0 1.843-.751 1.941-1.858zm6.352 2.154c-.392.257-.823.395-1.215.395-.824.02-1.393-.572-1.393-1.758v-5h.785v1.443h1.725v.632h-1.725v2.806c0 .771.255 1.146.725 1.146.275-.02.55-.098.863-.276l.235.612zm6.235-1.146.49.435c-.587.75-1.352 1.106-2.274 1.106-1.627 0-2.745-1.126-2.745-2.766 0-1.58 1.079-2.747 2.686-2.747 1.334-.02 2.314.79 2.49 2.134l-4.215 1.443c.274.79.96 1.284 1.863 1.284.647-.02 1.235-.316 1.706-.889zm-3.725-1.264c0 .079 0 .158.02.237l3.549-1.245c-.275-.692-.863-1.047-1.647-1.047-1.157.02-1.922.79-1.922 2.055zm8.196-2.036c-.608 0-1.078.218-1.078.731 0 1.245 3.039.593 3.039 2.57 0 1.066-.941 1.54-1.98 1.54-.765 0-1.57-.276-2.079-.77l.314-.593a2.74 2.74 0 0 0 1.804.692c.647 0 1.157-.257 1.157-.79.039-1.325-3-.653-3-2.59 0-1.047.902-1.481 1.882-1.481.647 0 1.274.197 1.725.494l-.313.632a2.728 2.728 0 0 0-1.47-.435zM10.04 33C7.823 33 6 31.162 6 28.91V4.07C6 1.839 7.824 0 10.04 0v2.233c-1.02 0-1.844.83-1.844 1.857v24.84c0 1.027.824 1.857 1.843 1.857V33zm64.92 0v-2.233c1.02 0 1.844-.83 1.844-1.857V4.07a1.848 1.848 0 0 0-1.843-1.857V0C77.196 0 79 1.838 79 4.07v24.84c.02 2.252-1.804 4.09-4.04 4.09z"></path></svg> -->





<!-- <svg fill="#fff" viewBox="0 0 62 62" id="icon_18" xmlns="http://www.w3.org/2000/svg"><path d="M31 62C13.9 62 0 48.1 0 31S13.9 0 31 0s31 13.9 31 31-13.9 31-31 31zm0-60C15 2 2 15 2 31s13 29 29 29 29-13 29-29S47 2 31 2z"></path><path d="M19.6 18v24.2h-3.8V22.7c-.7.5-1.4.9-2.2 1.3-.8.3-1.7.7-2.7.9v-3.3c.6-.2 1.3-.4 1.8-.7.6-.2 1.2-.5 1.8-.8s1.2-.6 1.7-1l1.8-1.2h1.6zM24.5 35.6c0-.7.1-1.3.3-2 .2-.6.4-1.2.8-1.8.3-.5.8-1 1.3-1.5.5-.4 1.1-.8 1.8-1-1-.6-1.8-1.3-2.4-2.2s-.9-1.9-.9-3c0-.9.2-1.7.5-2.4.4-.7.9-1.4 1.5-1.9s1.4-1 2.2-1.3 1.8-.5 2.8-.5c1 0 2 .2 2.8.5.9.3 1.6.7 2.2 1.3.6.5 1.1 1.2 1.5 1.9s.5 1.5.5 2.4c0 1.1-.3 2.1-.9 3-.6.9-1.4 1.6-2.4 2.2.7.3 1.3.6 1.8 1s1 .9 1.3 1.4c.4.5.6 1.1.8 1.8.2.6.3 1.3.3 2 0 1-.2 2-.6 2.8-.4.9-.9 1.6-1.6 2.2-.7.6-1.5 1.1-2.5 1.4-1 .3-2 .5-3.2.5-1.2 0-2.2-.2-3.2-.5s-1.8-.8-2.5-1.4c-.7-.6-1.2-1.3-1.6-2.2-.4-.8-.6-1.7-.6-2.7zm3.8-.4c0 .7.1 1.3.3 1.8.2.5.5 1 .8 1.4.4.4.8.7 1.3.9.5.2 1.1.3 1.7.3.6 0 1.2-.1 1.7-.3.5-.2.9-.5 1.3-.9s.7-.8.9-1.4c.2-.5.3-1.1.3-1.8 0-.6-.1-1.2-.3-1.7-.2-.5-.5-1-.8-1.4-.4-.4-.8-.7-1.3-.9-.5-.2-1.1-.3-1.7-.3-.6 0-1.1.1-1.7.3s-1 .5-1.3.9c-.4.4-.7.9-.9 1.4s-.3 1.1-.3 1.7zm.8-10.7c0 .5.1 1 .3 1.4.2.4.4.8.7 1.1.3.3.6.6 1 .7.4.2.8.3 1.3.3s.9-.1 1.3-.3.8-.4 1.1-.7c.3-.3.5-.7.7-1.1.2-.4.3-.9.3-1.4 0-.5-.1-1-.3-1.4-.2-.4-.4-.8-.7-1.1-.3-.3-.6-.5-1.1-.7-.4-.2-.8-.3-1.3-.3s-.9.1-1.4.3c-.4.2-.8.4-1 .8-.3.3-.5.7-.7 1.1s-.2.9-.2 1.3zM52.5 37.6h-3.6v3.6h-1.5v-3.6h-3.6v-1.5h3.6v-3.6h1.5v3.6h3.6v1.5z"></path></svg> -->



<!-- <svg viewBox="0 0 85 33" id="logo_mateAffiliate" xmlns="http://www.w3.org/2000/svg"><path d="M32.863 9.643v5.889h-2.04v-5.316c0-1.442-.843-2.312-2.215-2.312-1.608.06-2.569 1.304-2.569 2.944v4.684H24v-5.316c0-1.442-.824-2.312-2.196-2.312-1.628.06-2.608 1.304-2.608 2.944v4.684h-2.02V6.066h2.02v1.838c.647-1.324 1.843-1.897 3.412-1.897 1.666 0 2.823.83 3.255 2.273.608-1.581 1.843-2.273 3.568-2.273 2.157 0 3.432 1.383 3.432 3.636zm13.411-3.577v9.466h-2.02v-1.6c-.685 1.086-1.803 1.698-3.274 1.698-2.706 0-4.49-1.976-4.49-4.86 0-2.826 1.784-4.763 4.431-4.783 1.51-.02 2.667.593 3.353 1.68v-1.6h2zm-2.02 5.118v-.691c-.156-1.64-1.274-2.747-2.862-2.747-1.686 0-2.882 1.304-2.902 3.102.02 1.799 1.177 3.083 2.902 3.083 1.588-.02 2.706-1.126 2.863-2.747zm11.51 3.755c-.745.435-1.529.691-2.254.691-1.49 0-2.687-1.027-2.687-3.102V3.834h2.02v2.588h2.765v1.522h-2.765v4.209c0 1.126.372 1.6 1.04 1.6.372 0 .823-.138 1.372-.415l.51 1.6zm10.412-2.352 1.177 1.107c-1.06 1.304-2.432 1.917-4.06 1.917-2.901 0-4.881-1.937-4.881-4.802 0-2.766 1.823-4.762 4.706-4.802 2.548-.04 4.274 1.542 4.43 4.13l-6.823 2.055c.451 1.107 1.432 1.779 2.706 1.779 1.02 0 1.98-.475 2.745-1.384zm-5.745-1.897 5.157-1.521c-.431-1.067-1.235-1.522-2.353-1.522-1.706 0-2.804 1.067-2.804 3.043zM22.196 21.934v5.454h-.804v-1.166c-.412.751-1.137 1.205-2.098 1.205-1.549 0-2.627-1.146-2.627-2.786 0-1.62 1.058-2.766 2.588-2.766.98-.02 1.725.435 2.137 1.205v-1.146h.804zm-.804 2.944v-.415c-.098-1.106-.882-1.877-1.941-1.877-1.157 0-1.96.87-1.96 2.075s.823 2.075 1.96 2.075c1.059 0 1.843-.751 1.941-1.858zm4.549-3.517v.751h1.55v.632h-1.55v4.664h-.784V21.46c0-1.186.843-1.818 1.725-1.818.432.02.843.138 1.157.375l-.314.633a1.67 1.67 0 0 0-.823-.297c-.53 0-.96.356-.96 1.008zm5.118-1.739c.353.02.706.099.98.277l-.039.73c-.294-.157-.627-.276-.941-.276-.55 0-.96.336-.96.988v.751h1.548v.633h-1.53v4.663h-.784V21.44c-.02-1.205.844-1.818 1.726-1.818zm1.372.751c0-.316.236-.553.53-.553.294 0 .53.237.53.553a.534.534 0 0 1-.53.553.56.56 0 0 1-.53-.553zm.138 1.561h.784v5.454h-.784v-5.454zm5.098 4.743c.176 0 .372-.08.568-.238l.157.653a1.573 1.573 0 0 1-.921.316c-.647 0-1.118-.455-1.118-1.344v-6.363h.784v6.304c.02.454.216.672.53.672zm3.823-6.304a.534.534 0 0 1-.53.553.534.534 0 0 1-.529-.553c0-.316.236-.553.53-.553.294 0 .53.217.53.553zm-.117 1.561v5.454h-.785v-5.454h.785zm8.058 0v5.454h-.803v-1.166c-.412.751-1.138 1.205-2.099 1.205-1.549 0-2.627-1.146-2.627-2.786 0-1.62 1.059-2.766 2.588-2.766.98-.02 1.726.435 2.137 1.205v-1.146h.804zm-.803 2.944v-.415c-.099-1.106-.883-1.877-1.942-1.877-1.157 0-1.96.87-1.96 2.075s.823 2.075 1.96 2.075c1.06 0 1.843-.751 1.941-1.858zm6.352 2.154c-.392.257-.823.395-1.215.395-.824.02-1.393-.572-1.393-1.758v-5h.785v1.443h1.725v.632h-1.725v2.806c0 .771.255 1.146.725 1.146.275-.02.55-.098.863-.276l.235.612zm6.235-1.146.49.435c-.587.75-1.352 1.106-2.274 1.106-1.627 0-2.745-1.126-2.745-2.766 0-1.58 1.079-2.747 2.686-2.747 1.334-.02 2.314.79 2.49 2.134l-4.215 1.443c.274.79.96 1.284 1.863 1.284.647-.02 1.235-.316 1.706-.889zm-3.725-1.264c0 .079 0 .158.02.237l3.549-1.245c-.275-.692-.863-1.047-1.647-1.047-1.157.02-1.922.79-1.922 2.055zm8.196-2.036c-.608 0-1.078.218-1.078.731 0 1.245 3.039.593 3.039 2.57 0 1.066-.941 1.54-1.98 1.54-.765 0-1.57-.276-2.079-.77l.314-.593a2.74 2.74 0 0 0 1.804.692c.647 0 1.157-.257 1.157-.79.039-1.325-3-.653-3-2.59 0-1.047.902-1.481 1.882-1.481.647 0 1.274.197 1.725.494l-.313.632a2.728 2.728 0 0 0-1.47-.435zM10.04 33C7.823 33 6 31.162 6 28.91V4.07C6 1.839 7.824 0 10.04 0v2.233c-1.02 0-1.844.83-1.844 1.857v24.84c0 1.027.824 1.857 1.843 1.857V33zm64.92 0v-2.233c1.02 0 1.844-.83 1.844-1.857V4.07a1.848 1.848 0 0 0-1.843-1.857V0C77.196 0 79 1.838 79 4.07v24.84c.02 2.252-1.804 4.09-4.04 4.09z"></path></svg> -->



<svg fill="none" viewBox="0 0 23 28" id="iso" xmlns="http://www.w3.org/2000/svg"><g clip-path="url(#cja)"><path d="M23 8.142H0V16.2c0 6.52 5.158 11.815 11.508 11.815 6.35 0 11.508-5.295 11.508-11.815V8.141H23zm0-.728V1.986C23 .894 22.13 0 21.066 0H1.934C.87 0 0 .894 0 1.986v5.411h23v.017z" fill="#A11E29"></path><path d="M3.353 6.156v-.778l-.29.58h-.13l-.29-.58v.778h-.225V4.965h.242l.338.678.339-.678h.241v1.191h-.225zm.79-1.191h.21l.434 1.175h-.225l-.113-.298h-.403l-.113.298h-.225l.435-1.175zm.258.728-.162-.464-.16.464H4.4zm.741-.298v.761h-.226V4.965h.177l.597.777v-.777h.225v1.191h-.193l-.58-.761zm1.338-.43h.193l.435 1.175h-.225l-.113-.282h-.403l-.113.298h-.226l.452-1.191zm.257.728-.16-.464-.162.464h.322zm1.257.331a.437.437 0 0 1-.532.1.458.458 0 0 1-.177-.133.576.576 0 0 1-.113-.199.54.54 0 0 1-.048-.232.54.54 0 0 1 .048-.231.686.686 0 0 1 .113-.182c.049-.05.113-.1.178-.133a.504.504 0 0 1 .225-.05.48.48 0 0 1 .274.067c.08.05.13.116.177.182l-.16.132a.255.255 0 0 0-.13-.132.319.319 0 0 0-.177-.05.297.297 0 0 0-.129.033.166.166 0 0 0-.097.083c-.032.033-.048.083-.064.132-.016.05-.016.1-.016.15 0 .049.016.099.032.148.016.05.048.083.065.133a.29.29 0 0 0 .112.082c.049.017.08.034.13.034.112 0 .209-.05.306-.166v-.083h-.226v-.165h.419v.612h-.177v-.132h-.033zm1.177-.066v.198h-.79V4.965h.774v.215h-.548v.281h.484v.182h-.484v.315h.564zm1.129.198v-.778l-.307.58h-.112l-.307-.58v.778H9.35V4.965h.241l.339.678.354-.678h.226v1.191h-.21zm1.257-.198v.198h-.806V4.965h.79v.215h-.564v.281h.483v.182h-.483v.315h.58zm.403-.563v.761h-.226V4.965h.178l.596.777v-.777h.226v1.191h-.194l-.58-.761zm1.87-.215h-.371v.976h-.226V5.18h-.355v-.215h.951v.215zm1.176.099s-.016-.017-.048-.033a.121.121 0 0 0-.08-.033c-.033 0-.065-.017-.098-.033-.032-.017-.064-.017-.096-.017a.314.314 0 0 0-.145.033.238.238 0 0 0-.033.1c0 .016 0 .05.017.066l.048.05c.016.016.048.016.08.032.033.017.065.017.113.033.049.017.113.034.162.05.048.017.08.033.112.066s.065.067.08.1a.319.319 0 0 1 .033.132.499.499 0 0 1-.032.165.221.221 0 0 1-.097.116.321.321 0 0 1-.129.067c-.048.016-.113.016-.16.016a1.34 1.34 0 0 1-.259-.033.975.975 0 0 1-.226-.116l.097-.198c.016.016.032.016.049.033.032.016.048.033.096.05.033.016.08.032.113.032a.34.34 0 0 0 .13.017c.128 0 .176-.033.176-.116 0-.033 0-.05-.016-.066a.223.223 0 0 0-.064-.05c-.033-.016-.065-.033-.097-.033-.032-.016-.08-.016-.129-.033l-.145-.05c-.048-.016-.08-.033-.097-.066a.288.288 0 0 1-.064-.083c-.016-.033-.016-.066-.016-.115 0-.067.016-.116.032-.166a.221.221 0 0 1 .097-.116.31.31 0 0 1 .129-.066c.048-.016.113-.016.16-.016.081 0 .162.016.226.033.065.033.13.05.178.099l-.097.149zm.418-.314.274.579.29-.58h.242l-.419.778v.414h-.225v-.414l-.403-.777h.241zm1.596.314s-.015-.017-.048-.033a.122.122 0 0 0-.08-.033c-.032 0-.065-.017-.097-.033-.032-.017-.064-.017-.097-.017a.315.315 0 0 0-.145.033c-.032.017-.048.05-.048.1 0 .016 0 .05.016.066l.048.05c.017.016.049.016.081.032.032.017.065.017.113.033.048.017.113.034.161.05a.27.27 0 0 1 .113.066.434.434 0 0 1 .08.1.319.319 0 0 1 .033.132.474.474 0 0 1-.033.165.22.22 0 0 1-.096.116.328.328 0 0 1-.13.067c-.048.016-.112.016-.16.016a1.33 1.33 0 0 1-.258-.033.972.972 0 0 1-.226-.116l.097-.198c.016.016.032.016.048.033.032.016.049.033.097.05.032.016.08.032.113.032.048.017.08.017.129.017.128 0 .177-.033.177-.116 0-.033 0-.05-.016-.066a.224.224 0 0 0-.065-.05.225.225 0 0 0-.096-.033c-.033-.016-.081-.016-.13-.033l-.144-.05c-.049-.016-.081-.033-.097-.066-.032-.033-.049-.05-.065-.083s-.016-.066-.016-.115c0-.067.016-.116.032-.166a.222.222 0 0 1 .097-.116.321.321 0 0 1 .13-.066c.047-.016.112-.016.16-.016.081 0 .162.016.226.033.064.033.129.05.177.099l-.08.149zm1.16-.099h-.37v.976h-.225V5.18h-.371v-.215h.967v.215zm.936.778v.198h-.79V4.965h.774v.215h-.548v.281h.483v.182h-.483v.315h.564zm1.112.198v-.778l-.29.58h-.113l-.306-.58v.778h-.226V4.965h.242l.338.678.355-.678h.225v1.191h-.225zM16.44 20.752l-.048.05-.37.38a4.83 4.83 0 0 1-.597 2.45c-.806 1.422-2.305 2.316-3.917 2.316-1.611 0-3.11-.894-3.916-2.317a4.742 4.742 0 0 1 0-4.634c.806-1.423 2.305-2.316 3.916-2.316 1.241 0 2.402.53 3.256 1.423l.226-.232.08-.083c-.934-.976-2.208-1.555-3.578-1.555-1.773 0-3.433.976-4.32 2.548a5.248 5.248 0 0 0 0 5.114c.887 1.572 2.547 2.548 4.32 2.548 1.773 0 3.433-.976 4.32-2.548a5.12 5.12 0 0 0 .628-3.144z" fill="#fff"></path><path d="m16.94 16.896-1.403 1.423-.145.165-.177.182-3.32 3.41-2.29-2.35-1.16 1.175 3.45 3.54 3.723-3.822 2.482-2.532v-.016l-1.16-1.175zm-6.866-4.832a.738.738 0 0 1-.435.165H9.59v.447h.065c.29-.016.548-.1.757-.265.226-.182.387-.43.468-.76 0-.034-.033-.067-.065-.067l-.29-.083c-.08-.016-.161.033-.177.1a.95.95 0 0 1-.274.463zm0-1.94a.738.738 0 0 0-.435-.166H9.59v-.447h.065c.29.017.548.1.757.265.226.182.387.43.468.761 0 .033-.033.067-.065.067l-.29.082c-.08.017-.161-.033-.177-.099a1.028 1.028 0 0 0-.274-.463zm1.612 2.569h.225V9.499h-.225a.293.293 0 0 0-.29.298v2.581c0 .182.128.315.29.315zm-8.978 0h.226V9.499h-.226a.293.293 0 0 0-.29.298v2.581c0 .182.129.315.29.315zm2.015-2.685a.708.708 0 0 0-.258-.315.794.794 0 0 0-.387-.148 3.067 3.067 0 0 0-.467-.034h-.532v.48h.564c.178 0 .29.017.355.033a.453.453 0 0 1 .225.166.578.578 0 0 1 .081.298c0 .165-.048.281-.145.364-.097.083-.258.132-.5.132h-.564v.48h.564c.436 0 .742-.1.92-.298.176-.198.257-.43.257-.695a1.297 1.297 0 0 0-.113-.463zm2.74.798H5.996v.48h1.177c.16 0 .29-.132.29-.298v-.182zm-.145-1.307H5.996v.48h1.612v-.182a.293.293 0 0 0-.29-.298zm-1.322 3.194h1.322c.16 0 .29-.133.29-.298v-.182H5.996v.48zm-.371 0h.226V9.499h-.226a.293.293 0 0 0-.29.298v2.581c0 .182.129.315.29.315zm3.208-3.016a1.424 1.424 0 0 0-.532.546c-.129.232-.177.513-.177.844 0 .298.048.563.161.827.113.265.274.464.484.596.16.1.37.166.612.199h.065v-.464h-.049a1.075 1.075 0 0 1-.322-.115.72.72 0 0 1-.322-.398 1.918 1.918 0 0 1-.113-.645c0-.182.032-.38.096-.546a.867.867 0 0 1 .307-.414.837.837 0 0 1 .354-.132h.049V9.51H9.38c-.193.017-.37.083-.548.166zm4.771 1.555a.69.69 0 0 0-.323-.248.747.747 0 0 0 .338-.629.836.836 0 0 0-.483-.744 1.416 1.416 0 0 0-.58-.1h-.516v.48h.387c.21 0 .354.017.435.033.08.017.129.067.177.133a.387.387 0 0 1 .065.232.352.352 0 0 1-.065.231.41.41 0 0 1-.193.133 1.595 1.595 0 0 1-.355.033h-.435v.48h.484c.177 0 .322.016.419.05a.41.41 0 0 1 .21.148.51.51 0 0 1 .031.497.387.387 0 0 1-.128.149.624.624 0 0 1-.21.082c-.048.017-.129.017-.258.017h-.532v.48h.532c.194 0 .355-.017.5-.05a.791.791 0 0 0 .354-.165.805.805 0 0 0 .242-.315.988.988 0 0 0 .097-.43 1.103 1.103 0 0 0-.194-.496zm-7.705 3.264c0-.082.016-.182.048-.264A.696.696 0 0 1 6.092 14a.59.59 0 0 1 .226-.165.6.6 0 0 1 .306-.067c.13 0 .242.033.339.083a.57.57 0 0 1 .21.232l-.21.149a.254.254 0 0 0-.065-.1.35.35 0 0 0-.08-.066.224.224 0 0 0-.097-.033c-.032 0-.065-.016-.097-.016a.319.319 0 0 0-.177.05c-.048.032-.097.065-.129.115s-.064.1-.08.165c-.017.067-.033.116-.033.183a.61.61 0 0 0 .032.182c.017.05.049.115.081.165s.08.083.129.116c.048.033.113.05.177.05.032 0 .065 0 .097-.017s.064-.017.097-.033c.032-.017.064-.033.08-.066a.341.341 0 0 0 .065-.1l.225.133a.39.39 0 0 1-.096.149.379.379 0 0 1-.145.099.567.567 0 0 1-.178.066c-.064.017-.113.017-.177.017a.619.619 0 0 1-.29-.066c-.08-.05-.161-.1-.226-.182a.77.77 0 0 1-.145-.249 1.87 1.87 0 0 1-.032-.298zm2.627.509v.249h-1V13.78h.984v.248H7.8v.364h.613v.232h-.612v.38h.725zm.354.249V13.78h.645c.065 0 .129.016.177.05a.891.891 0 0 1 .145.115c.049.05.065.1.097.166.016.066.032.116.032.182 0 .1-.016.182-.064.265a.379.379 0 0 1-.194.165l.323.563h-.323l-.29-.497h-.274v.497H8.88v-.033zm.29-.745h.339c.032 0 .048 0 .064-.017.017-.016.049-.033.065-.05a.128.128 0 0 0 .032-.082c.016-.033.016-.066.016-.1 0-.032 0-.065-.016-.098-.016-.034-.032-.05-.048-.083a.215.215 0 0 0-.065-.05c-.016-.016-.048-.016-.064-.016h-.339v.496h.016zm2.258-.479h-.468v1.224h-.274v-1.225h-.467v-.248h1.193v.248h.016zm.322 1.224V13.78h.274v1.473h-.274zm.726 0V13.78h.967v.248h-.693v.38h.58v.232h-.58v.613h-.274zm1.304 0V13.78h.274v1.473h-.274zm1.725-.249v.249h-1V13.78h.984v.248h-.71v.364h.613v.232h-.612v.38h.725zm.355.249V13.78h.516a.6.6 0 0 1 .306.066c.08.05.161.1.226.166.064.066.096.149.128.231a.792.792 0 0 1 .049.282.822.822 0 0 1-.049.297.698.698 0 0 1-.145.232.545.545 0 0 1-.225.15.762.762 0 0 1-.29.049h-.516zm.95-.745a.866.866 0 0 0-.031-.199.322.322 0 0 0-.081-.148.251.251 0 0 0-.129-.1.564.564 0 0 0-.177-.033h-.242v.976h.242a.564.564 0 0 0 .177-.033.898.898 0 0 0 .129-.099.437.437 0 0 0 .08-.149c.033-.082.033-.149.033-.215zM2.627 3.723h-.29V2.251h.29v1.472zm.951-.384c0-.066-.016-.1-.049-.132a.463.463 0 0 0-.16-.1.627.627 0 0 1-.307-.198.412.412 0 0 1 .032-.563.51.51 0 0 1 .323-.116c.08 0 .16.017.241.05.065.033.13.1.162.165a.54.54 0 0 1 .048.232h-.29c0-.066-.016-.116-.049-.149-.032-.033-.064-.05-.128-.05-.049 0-.097.017-.113.05a.152.152 0 0 0-.049.116c0 .033.016.083.049.116.032.033.08.066.16.1a.617.617 0 0 1 .307.198.424.424 0 0 1 .097.281c0 .132-.032.232-.113.298a.51.51 0 0 1-.322.116.463.463 0 0 1-.258-.066.445.445 0 0 1-.178-.166.46.46 0 0 1-.064-.265h.306c0 .083.016.15.049.182.032.033.08.05.16.05.097 0 .146-.05.146-.149zm1.612-.232a.785.785 0 0 1-.13.464c-.08.116-.209.165-.37.165a.472.472 0 0 1-.387-.165.674.674 0 0 1-.145-.447v-.248c0-.199.049-.364.13-.48a.472.472 0 0 1 .386-.166c.161 0 .29.05.37.166a.785.785 0 0 1 .146.463v.248zM4.9 2.86a.708.708 0 0 0-.049-.298.256.256 0 0 0-.177-.082c-.08 0-.129.033-.177.099a.894.894 0 0 0-.065.281v.265c0 .132.016.215.049.281.032.066.096.1.177.1.08 0 .129-.034.161-.083a.625.625 0 0 0 .048-.282v-.28H4.9zm.693.98h-.21l.435-1.59h.21l-.435 1.59zm.983-.117h-.29V2.251h.29v1.472zm1.096-.645H7.22v.397h.532v.248H6.93V2.251h.822v.248H7.22v.347h.452v.232zm1.321.145c0 .166-.048.298-.145.38a.523.523 0 0 1-.354.133c-.161 0-.29-.05-.37-.165a.785.785 0 0 1-.13-.464V2.86c0-.198.048-.364.13-.463a.44.44 0 0 1 .37-.166c.161 0 .274.05.354.133.081.082.13.215.145.38h-.29c0-.099-.016-.182-.048-.215a.212.212 0 0 0-.161-.066c-.08 0-.13.033-.161.083-.033.05-.049.149-.049.281v.281c0 .15.016.249.049.298.032.05.08.083.16.083.081 0 .13-.017.162-.05s.048-.099.048-.198h.29v-.017zm1.677.497h-.838v-.2l.386-.513c.049-.066.081-.132.113-.182.016-.05.032-.1.032-.149a.338.338 0 0 0-.032-.149c-.016-.033-.048-.05-.096-.05-.049 0-.081.017-.113.067-.033.05-.033.099-.033.182h-.274a.68.68 0 0 1 .049-.248.35.35 0 0 1 .161-.183.363.363 0 0 1 .226-.066c.129 0 .225.033.29.116a.44.44 0 0 1 .096.298.477.477 0 0 1-.064.248c-.032.083-.113.182-.21.315l-.177.264h.484v.249zm1.128-1.304-.451 1.307h-.29l.451-1.24h-.58V2.25h.87v.165zm1.112.695c0 .199-.032.364-.112.464-.081.099-.178.165-.307.165s-.241-.05-.306-.149a.938.938 0 0 1-.097-.463v-.282c0-.198.033-.364.113-.463.08-.1.178-.165.306-.165.13 0 .242.05.307.165.064.1.113.265.113.463v.265h-.017zm-.274-.298c0-.115-.016-.198-.032-.264-.016-.05-.064-.083-.097-.083-.08 0-.128.1-.145.314v.364c0 .116.017.199.033.265a.12.12 0 0 0 .112.083c.049 0 .081-.033.097-.083a.823.823 0 0 0 .032-.248v-.348zm1.402.298c0 .199-.032.364-.113.464-.08.099-.177.165-.306.165s-.242-.05-.306-.149a.938.938 0 0 1-.097-.463v-.282c0-.198.033-.364.113-.463.08-.1.177-.165.306-.165.13 0 .242.05.307.165a.89.89 0 0 1 .112.463v.265h-.016zm-.274-.298c0-.115-.016-.198-.032-.264-.016-.05-.064-.083-.097-.083-.08 0-.129.1-.145.314v.364c0 .116.016.199.033.265a.12.12 0 0 0 .112.083c.049 0 .081-.033.097-.083a.827.827 0 0 0 .032-.248v-.348zm1.194.911h-.29V2.598l-.274.116v-.231l.515-.216h.033v1.457h.016zm.547-.977c0-.05.016-.083.048-.116a.145.145 0 0 1 .113-.05c.048 0 .08.017.113.05a.152.152 0 0 1 .048.116c0 .05-.016.083-.048.116a.145.145 0 0 1-.113.05.145.145 0 0 1-.113-.05.152.152 0 0 1-.048-.116zm0 .827c0-.05.016-.082.048-.116a.145.145 0 0 1 .113-.05c.048 0 .08.017.113.05a.152.152 0 0 1 .048.116c0 .05-.016.083-.048.116a.145.145 0 0 1-.113.05.145.145 0 0 1-.113-.05.152.152 0 0 1-.048-.116zm1.466.146h-.838v-.2l.387-.513c.049-.066.08-.132.113-.182.016-.05.032-.1.032-.149a.338.338 0 0 0-.032-.149c-.016-.033-.048-.05-.097-.05-.048 0-.08.017-.113.067-.032.05-.032.099-.032.182h-.274a.68.68 0 0 1 .049-.248.35.35 0 0 1 .16-.183.363.363 0 0 1 .226-.066c.13 0 .226.033.29.116a.493.493 0 0 1 .113.315.477.477 0 0 1-.064.248c-.032.083-.113.182-.21.314l-.177.265h.484v.232h-.017zm1.113-.613c0 .199-.032.364-.113.464-.08.099-.177.165-.306.165s-.242-.05-.306-.149a.818.818 0 0 1-.113-.447v-.28c0-.2.032-.365.113-.464.08-.1.177-.166.306-.166.13 0 .242.05.306.166a.88.88 0 0 1 .113.463v.248zm-.274-.298c0-.115-.016-.198-.032-.264-.016-.05-.064-.083-.097-.083-.08 0-.129.1-.145.314v.364c0 .116.016.199.032.265.017.05.065.083.113.083.049 0 .08-.033.097-.083a.827.827 0 0 0 .032-.248v-.348zm1.193.915h-.274V2.598l-.274.116v-.231l.515-.216h.033v1.457zm.757-.861h.13c.048 0 .08-.017.112-.05a.338.338 0 0 0 .032-.149c0-.066-.016-.099-.032-.132-.032-.033-.064-.05-.097-.05-.032 0-.064.017-.096.05-.033.033-.033.066-.033.116h-.274a.36.36 0 0 1 .049-.199.32.32 0 0 1 .145-.149.436.436 0 0 1 .21-.05c.128 0 .241.034.306.116.08.083.113.182.113.315a.34.34 0 0 1-.049.182c-.032.05-.08.1-.129.132.065.033.113.066.145.133a.467.467 0 0 1 .049.215.43.43 0 0 1-.13.314.432.432 0 0 1-.322.116.395.395 0 0 1-.306-.116.418.418 0 0 1-.113-.314h.274c0 .05.016.1.032.132.017.033.065.05.097.05.049 0 .08-.017.113-.05.032-.033.048-.083.048-.149 0-.149-.048-.215-.16-.215h-.13v-.248h.016zm-1.95 6.602h-.226l-.983 1.771-.886-1.77v.926l.886 1.688.967-1.738v2.317h.226c.161 0 .29-.132.29-.298V9.763a.27.27 0 0 0-.274-.298zm-2.691.298v2.582c0 .165.129.298.29.298h.225V9.465h-.225a.293.293 0 0 0-.29.298zm5.867 1.607a.857.857 0 0 0-.226-.266 1.018 1.018 0 0 0-.355-.165 2.567 2.567 0 0 0-.45-.116l-.114-.033v.43l.049.017c.096.016.177.05.258.066.112.033.193.066.274.116.064.05.112.099.16.149.033.05.05.132.05.215a.413.413 0 0 1-.178.347c-.13.083-.306.116-.532.116h-.065v.397h.065c.161 0 .322-.016.451-.05a.949.949 0 0 0 .37-.165c.098-.083.194-.165.243-.281a.796.796 0 0 0 .08-.397.882.882 0 0 0-.08-.38zm-.645-1.49a.93.93 0 0 1 .322.215l.049.066.21-.364-.033-.033a1.257 1.257 0 0 0-.451-.265 1.387 1.387 0 0 0-.532-.1h-.065v.398h.065c.161 0 .306.033.435.083zm-1.081-.418a.81.81 0 0 0-.354.182.85.85 0 0 0-.241.298.797.797 0 0 0-.081.397c0 .132.016.248.064.348a.618.618 0 0 0 .21.248c.08.066.193.116.322.165.113.033.258.083.42.116l.08.017v-.43l-.048-.017-.194-.05a1.843 1.843 0 0 1-.241-.1c-.065-.032-.097-.082-.13-.131a.36.36 0 0 1-.048-.2c0-.165.049-.28.161-.363.097-.083.242-.116.436-.133h.064v-.397h-.064c-.162 0-.258.017-.355.05zm.162 2.751c-.097-.017-.193-.05-.29-.083a1.141 1.141 0 0 1-.242-.132l-.193-.15-.049-.049-.225.364.032.033c.322.265.693.43 1.112.447h.065v-.397h-.049c-.048-.017-.112-.017-.16-.033z" fill="#fff"></path></g><defs><clipPath id="cja"><path fill="#fff" d="M0 0h23v28H0z"></path></clipPath></defs></svg>