<svg width="32" height="32" viewBox="0 0 32 32" fill="none" xmlns="http://www.w3.org/2000/svg">
<path fill-rule="evenodd" clip-rule="evenodd" d="M16 30.4C23.9529 30.4 30.4 23.9529 30.4 16C30.4 8.0471 23.9529 1.6 16 1.6C8.0471 1.6 1.6 8.0471 1.6 16C1.6 23.9529 8.0471 30.4 16 30.4ZM16 32C24.8366 32 32 24.8366 32 16C32 7.16344 24.8366 0 16 0C7.16344 0 0 7.16344 0 16C0 24.8366 7.16344 32 16 32Z" fill="#21728A"/>
<path d="M9.53427 11.3278H7.62882C7.60598 11.8981 6.80176 12.87 5.6 12.87V14.4395C6.63269 14.4395 7.30439 14.0563 7.50545 13.746H7.59227V20.6722H9.53427V11.3278Z" fill="#21728A"/>
<path d="M15.2518 20.8C17.3537 20.8 18.8753 19.673 18.8844 18.1582C18.8753 16.9901 17.9797 16.0365 16.8556 15.8494V15.7856C17.8335 15.5848 18.528 14.7361 18.5372 13.7141C18.528 12.2677 17.1389 11.2 15.2518 11.2C13.3509 11.2 11.9618 12.2677 11.9709 13.7141C11.9618 14.7361 12.6563 15.5848 13.6525 15.7856V15.8494C12.5101 16.0365 11.6145 16.9901 11.6236 18.1582C11.6145 19.673 13.1315 20.8 15.2518 20.8ZM15.2518 19.3491C14.3059 19.3491 13.6707 18.797 13.6799 18.003C13.6707 17.1954 14.3379 16.6114 15.2518 16.6114C16.1519 16.6114 16.8145 17.1954 16.8236 18.003C16.8145 18.797 16.1839 19.3491 15.2518 19.3491ZM15.2518 15.1741C14.4567 15.1741 13.8901 14.6586 13.8992 13.9194C13.8901 13.1939 14.4475 12.6875 15.2518 12.6875C16.0423 12.6875 16.5952 13.1939 16.6043 13.9194C16.5952 14.6586 16.0331 15.1741 15.2518 15.1741Z" fill="#21728A"/>
<path d="M26.4 15.2471H24.1518V13.0798H22.6211V15.2471H20.3729V16.7529H22.6211V18.9202H24.1518V16.7529H26.4V15.2471Z" fill="#21728A"/>
</svg>
