<svg width="68" height="34" viewBox="0 0 68 34" fill="none" xmlns="http://www.w3.org/2000/svg">
<path fill-rule="evenodd" clip-rule="evenodd" d="M0 34H68V6.78448L66.6558 15.004C66.5356 15.0825 66.4556 15.1805 66.3755 15.279C66.2954 15.377 66.2153 15.475 66.0955 15.5531C65.6152 16.1028 65.0549 16.6524 64.5747 17.2802C64.335 17.5935 64.0752 17.9074 63.8154 18.2208C63.5547 18.5352 63.2942 18.8495 63.0537 19.1639C62.8137 19.3997 62.6536 19.7135 62.4133 19.9488C62.4497 19.6272 62.5029 19.3056 62.5576 18.9839C62.6228 18.5992 62.6899 18.2145 62.7336 17.8298C62.8213 17.4286 62.9089 17.0167 62.9966 16.6024C63.1489 15.8815 63.3015 15.1519 63.4539 14.4543C63.6941 13.3555 64.0142 12.2562 64.2544 11.236C64.4146 10.7256 64.5547 10.2153 64.6946 9.70493C64.8345 9.19458 64.9746 8.68471 65.1348 8.17436C65.3391 7.57377 65.5435 6.9727 65.7271 6.39201C65.8311 6.06261 65.9285 5.73952 66.0154 5.4271C66.2556 4.56357 66.5757 3.85723 66.8159 3.15089C66.9055 2.88698 66.9954 2.6449 67.0811 2.42077C67.2244 2.0448 67.356 1.7188 67.4563 1.42384C67.6121 1.05709 67.7434 0.738361 67.8459 0.48561C67.9084 0.331341 67.9602 0.201812 68 0.100906V0C67.866 0.205208 67.5964 0.627752 67.2161 1.26666C66.9761 1.73772 66.5757 2.28737 66.2556 2.91512C65.9353 3.54335 65.4551 4.2497 65.0549 5.11322C64.8774 5.46105 64.6841 5.82441 64.4822 6.2033C64.2288 6.6792 63.9614 7.17937 63.6941 7.70379C63.2139 8.64542 62.8137 9.58753 62.3333 10.6077C61.853 11.6285 61.4529 12.6487 60.9727 13.8261C60.4922 14.9254 60.092 16.0242 59.6919 17.2016C59.2915 18.3004 58.8914 19.4778 58.5713 20.5771C58.4167 21.1073 58.2622 21.656 58.0986 22.2052C57.9233 22.7941 57.7378 23.3835 57.5308 23.9521C57.2104 25.0514 56.9702 26.0716 56.7302 27.0923C56.5701 27.7986 56.4099 28.4264 56.25 29.0546L57.0503 17.3587L52.728 30.0749L58.6514 8.72401L52.1677 20.9695L53.6885 3.85723L47.4448 29.2899L48.4856 13.8261L44.073 29.06L47.7651 3.38617L41.6816 22.4608L42.002 16.1814L42.2419 14.8468L42.0818 15.2392L42.1619 13.1983C42.4021 12.7273 42.7222 12.3348 42.9624 11.9423C43.2825 11.4713 43.5227 11.0788 43.7629 10.6863C44.2432 9.98 44.4832 9.66612 44.4832 9.66612C44.4832 9.66612 44.1631 9.98 43.5227 10.5296C43.4272 10.6 43.3315 10.6839 43.2339 10.78C43.0042 11.006 42.7629 11.2981 42.4822 11.6285L42.2419 11.8637L42.6421 4.2497L40.561 13.8261C40.3208 14.1404 40.0808 14.3757 39.7605 14.6896C39.2002 15.3178 38.72 16.0242 38.1597 16.6524C38.0784 16.7717 37.9558 16.9119 37.8337 17.0619C37.7156 17.2069 37.5981 17.3612 37.5193 17.5154L37.6794 16.8091L38.6399 12.7273L39.7605 8.64542L40.4009 6.60449L41.0413 4.64216L39.1204 8.41013L38.1597 10.4511L37.2791 12.4134L34.8779 18.3004L34.1575 20.2632L32.7166 24.3446C32.3164 23.9521 31.8362 23.6382 31.356 23.4815V23.4029L33.5972 11.707L31.2759 17.2802L31.1958 14.8468C31.5159 14.2971 31.7561 13.8261 32.0762 13.4336C32.3164 13.0411 32.5566 12.6487 32.7966 12.3348C33.1968 11.7856 33.437 11.4713 33.437 11.4713C33.437 11.4713 33.1169 11.707 32.6367 12.2562C32.3164 12.492 32.0762 12.8059 31.676 13.1197L31.1958 13.5908L30.9556 6.84027L29.595 15.1606C29.573 15.1825 29.551 15.2058 29.5288 15.23C29.3894 15.3814 29.2417 15.5749 29.0347 15.7103C28.5542 16.2595 28.074 16.8091 27.5938 17.4373L26.1528 19.3211C26.0708 19.4016 25.9885 19.5025 25.9062 19.6136C25.8284 19.7194 25.7505 19.8343 25.6726 19.9488C25.7527 19.4778 25.9128 18.9286 25.9929 18.4576C26.1528 17.8298 26.313 17.2016 26.4731 16.7305C26.6333 16.1814 26.7932 15.7103 26.9534 15.2392C27.1135 14.7682 27.1936 14.4543 27.2737 14.1404C27.4336 13.5122 27.5938 13.1197 27.5938 13.1197C27.5938 13.1197 27.4336 13.4336 27.0334 13.9832C26.8733 14.2185 26.6333 14.611 26.3931 15.004C26.3069 15.1451 26.2207 15.296 26.1309 15.4537C25.9702 15.7346 25.7979 16.0363 25.5925 16.338C25.4448 16.5554 25.3142 16.7892 25.1851 17.0395C25.0339 17.3326 24.8845 17.6484 24.7122 17.9865C24.3918 18.5361 24.0718 19.2425 23.7515 19.8707C23.4141 20.5742 23.0986 21.2776 22.7822 22.0043C22.4983 22.6558 22.2134 23.3258 21.9106 24.0307C21.6582 24.6672 21.4219 25.3197 21.1946 25.9741C20.9175 26.7716 20.6536 27.5716 20.3896 28.3483C20.2297 29.0546 19.9895 29.6824 19.8293 30.3892C19.8293 30.4484 19.7837 30.5076 19.7615 30.5668C19.7542 30.5857 19.7493 30.6051 19.7493 30.6245C19.6799 30.7603 19.6108 30.8962 19.5935 31.032L20.4697 17.594L17.1079 27.7201L24.2319 3.38617L15.8271 20.5771L17.2678 4.2497L10.7842 29.2113L11.825 13.8261L6.54175 32.5796L8.98315 15.2392C9.24976 14.612 9.51611 14.0546 9.78247 13.4972C9.91626 13.2172 10.05 12.9373 10.1838 12.6487L10.2014 12.6142C10.676 11.6842 11.1504 10.7543 11.6248 9.90141C11.7773 9.62682 11.9219 9.36049 12.0635 9.09949C12.3674 8.53917 12.658 8.0036 12.9856 7.46802C13.0569 7.35159 13.1211 7.24195 13.1824 7.13716C13.3276 6.88926 13.457 6.66853 13.626 6.4478C13.7859 6.13344 14.0261 5.81956 14.2661 5.50569C14.5122 5.16804 14.728 4.83039 14.9321 4.51069C15.0601 4.31034 15.1833 4.11726 15.3069 3.93582C15.5767 3.55791 15.7908 3.23481 15.9402 3.00098C16.1011 2.7492 16.1873 2.60124 16.1873 2.60124C16.1873 2.60124 15.7871 2.99371 15.0667 3.77864C14.7466 4.17111 14.2661 4.56357 13.7859 5.11322C13.5459 5.34851 13.3057 5.66287 12.9856 5.97674C12.8286 6.18195 12.6377 6.38716 12.4573 6.59237C12.3613 6.70103 12.2683 6.8097 12.1851 6.91886L11.6465 7.59706C11.2593 8.08364 10.8604 8.58186 10.4241 9.11647C10.197 9.33915 10.0103 9.6016 9.83496 9.84707C9.76318 9.94798 9.69336 10.046 9.62354 10.1372L10.6643 3.15089L7.4624 13.2769C7.14233 13.6694 6.9021 14.0618 6.66211 14.5329C6.26978 15.1097 5.90771 15.7161 5.53857 16.3337C5.30518 16.7247 5.06909 17.1201 4.8208 17.5154L3.13989 20.5771C3.08228 20.6901 3.0249 20.7624 2.99707 20.8526L3.06006 20.4199L3.86035 16.338L4.8208 12.2562L5.94165 8.17436L6.58203 6.13344L7.22217 4.17111L6.26172 6.05533L5.38135 7.93907L3.62012 11.8637L0.898682 18.5361L2.17944 11.6285L0 17.0478V34ZM27.8337 24.5803H27.9939L28.3142 22.6961C28.1541 23.2457 27.9939 23.874 27.8337 24.5803ZM28.4741 19.7921C28.5542 19.9488 28.6343 20.0274 28.7144 20.1846L28.8745 18.85C28.7944 19.1639 28.6343 19.4778 28.4741 19.7921ZM31.4358 27.4062V28.1125C31.5159 27.9553 31.5959 27.7201 31.676 27.5629C31.645 27.5323 31.626 27.5139 31.605 27.4979C31.5718 27.4731 31.5337 27.4542 31.4358 27.4062ZM38.72 19.8707H39.1204L39.5205 18.0651C39.4358 18.2587 39.3413 18.4619 39.2439 18.6715C39.0647 19.0572 38.8755 19.4637 38.72 19.8707ZM65.6953 20.106C65.7751 20.106 65.9353 20.106 66.0154 20.1846L66.2554 18.85C66.1909 19.0082 66.1133 19.1663 66.0332 19.3298C65.9148 19.5719 65.7908 19.8251 65.6953 20.106Z" fill="#05191F"/>
</svg>
