<svg width="28" height="28" viewBox="0 0 28 28" fill="none" xmlns="http://www.w3.org/2000/svg">
<path d="M17.3657 0.411763C9.86246 -1.44054 2.27404 3.12989 0.414198 10.6384C-1.44564 18.1399 3.13297 25.7265 10.6362 27.5859C18.1394 29.4453 25.735 24.8678 27.5877 17.3592C29.4404 9.85069 24.876 2.27116 17.3657 0.411763Z" fill="#375F89"/>
<mask id="mask0_11984_46320" style="mask-type:alpha" maskUnits="userSpaceOnUse" x="0" y="0" width="28" height="28">
<path d="M17.3657 0.411763C9.86246 -1.44054 2.27404 3.12989 0.414198 10.6384C-1.44564 18.1399 3.13297 25.7265 10.6362 27.5859C18.1394 29.4453 25.735 24.8678 27.5877 17.3592C29.4404 9.85069 24.876 2.27116 17.3657 0.411763Z" fill="#375F89"/>
</mask>
<g mask="url(#mask0_11984_46320)">
<path fill-rule="evenodd" clip-rule="evenodd" d="M2.03453 22.4028C1.1046 21.0129 0.408446 19.4558 0 17.7874L2.77949 19.109L2.7949 19.9267C2.7949 20.228 2.276 20.866 2.10902 21.1091L2.03453 22.4028ZM19.1302 0.457755C24.4271 2.19199 28.4012 6.78708 29.1667 12.3822L28.6657 12.329C28.5758 12.7088 28.4936 12.7164 28.4936 13.1721C28.4936 13.5746 29.0074 13.843 29.0074 14.6911C29.0074 14.919 28.4654 15.3722 28.4423 15.4532L27.6382 14.524V15.7064L27.5175 15.7013L27.3017 13.5189L26.8521 13.6582L26.3178 12.0353L24.5582 13.8481L24.5376 15.1747L23.9622 15.5545L23.3508 12.1518L22.986 12.4151L22.1589 11.3138L20.9232 11.3493L20.4506 10.8151L19.9651 10.9467L19.012 9.87072L18.8271 9.99478L19.4179 11.4834H20.1038V11.1467H20.4454C20.692 11.8202 20.9592 11.4201 20.9592 11.8227C20.9592 13.2278 19.1995 14.2607 18.0461 14.524C18.1078 14.7772 18.0847 15.0304 18.3878 15.0304C19.0326 15.0304 18.7115 14.919 19.4153 14.8608C19.3819 16.2962 17.7456 18.0102 17.0469 19.0761L17.3603 21.2762C17.4425 21.7547 16.3533 22.2585 15.9834 22.7977L16.1606 23.6408L15.6597 23.8408C15.5723 24.7066 14.7195 25.6662 13.7613 25.6662H12.7338C12.7338 24.4813 11.8758 22.7876 11.8758 21.9496C11.8758 21.2382 12.2174 21.142 12.2174 20.2609C12.2174 19.4457 11.362 18.2786 11.362 18.0659V16.714H10.6761C10.5734 16.3368 10.6376 16.2076 10.1624 16.2076H9.99024C9.2427 16.2076 9.36858 16.5444 8.61848 16.5444H7.93259C7.3135 16.5444 6.21917 14.5899 6.21917 14.3493V12.324C6.21917 11.4505 7.03093 10.4986 7.59094 10.129V9.28589L8.36159 8.51371L8.79059 8.44283C9.71023 8.44283 9.59977 7.93648 10.1624 7.93648H11.7037V9.1188L13.3991 9.83275L13.5584 9.1112C14.3264 9.28842 14.5268 9.62514 15.4722 9.62514H15.8138C16.4637 9.62514 16.4997 8.77448 16.4997 8.10611L15.1279 8.24029L14.5294 6.95923L13.936 7.11367C14.0439 7.57191 14.1004 7.38203 14.1004 7.76939C14.1004 7.99724 13.9103 8.02256 13.7562 8.10611L13.1628 6.62251L11.886 5.72375L11.7165 5.88831L12.8031 7.01493C12.6593 7.42001 12.6413 8.58713 12.0427 7.76939L12.6028 7.50356L11.2053 6.06047L10.3679 6.382L9.54069 7.16177C9.45335 7.78964 9.28124 8.10611 8.61334 8.10611C8.16893 8.10611 8.43609 7.99218 7.75534 7.93648V6.24782H9.29665L8.79573 5.12373L8.61077 5.23513V4.89587L11.1154 3.75913C11.0692 3.40469 11.0101 3.59457 11.0101 3.20721C11.0101 3.18443 11.177 2.87302 11.1822 2.86796L11.8295 3.26544L11.6754 2.53884L10.6761 2.74137L10.4912 1.8578C11.2824 1.44766 13.0266 -0.000488281 13.5815 -0.000488281H14.0953C14.6373 -0.000488281 16.0861 0.526111 16.3224 0.842577L14.9481 0.705864L15.9679 1.53374L16.0656 1.1793L16.8259 0.974227L16.8362 0.505857H17.1804V1.0122L19.1302 0.457755Z" fill="#61BF5E"/>
</g>
</svg>
