<svg width="28" height="28" viewBox="0 0 28 28" fill="none" xmlns="http://www.w3.org/2000/svg">
<path d="M28.0001 11.5407C28.0001 6.2799 22.7946 2 16.3966 2C9.99836 2 4.79297 6.27995 4.79297 11.5407C4.79297 16.8015 9.99836 21.0814 16.3966 21.0814C16.9345 21.0814 17.4744 21.0509 18.0051 20.9906C20.4695 22.5255 22.2887 23.3657 23.4163 23.4885C23.4555 23.4926 23.495 23.4948 23.5336 23.4948C23.8958 23.4948 24.231 23.3178 24.4306 23.0211C24.6538 22.6892 24.6683 22.268 24.4696 21.9242C24.4603 21.9078 23.5902 20.3513 23.8412 18.8644C26.4885 17.048 28.0001 14.3936 28.0001 11.5407ZM13.2453 12.9816C12.2959 12.9816 11.5265 12.2271 11.5265 11.2964C11.5265 10.3656 12.2959 9.61111 13.2453 9.61111C14.1945 9.61111 14.9642 10.3657 14.9642 11.2964C14.9643 12.2271 14.1945 12.9816 13.2453 12.9816ZM19.5481 12.9816C18.5986 12.9816 17.829 12.2271 17.829 11.2964C17.829 10.3656 18.5986 9.61111 19.5481 9.61111C20.4973 9.61111 21.2669 10.3657 21.2669 11.2964C21.2669 12.2271 20.4973 12.9816 19.5481 12.9816Z" fill="white"/>
<path d="M7.24452 19.1739C6.09317 18.2392 5.18558 17.1451 4.54734 15.9221C3.87438 14.6327 3.5332 13.261 3.5332 11.8453C3.5332 10.4296 3.87442 9.05796 4.54734 7.76853C4.59886 7.66984 4.6528 7.57237 4.70775 7.47534C1.86577 9.07173 0 11.7361 0 14.748C0 17.4539 1.48671 19.9628 4.08401 21.6504C4.56372 23.4994 3.45053 25.4556 3.43877 25.4756C3.37243 25.5903 3.37733 25.7319 3.45135 25.842C3.51806 25.9412 3.6307 25.9999 3.75025 25.9999C3.76347 25.9999 3.77665 25.9991 3.79001 25.9977C5.08946 25.8562 7.37775 24.5613 9.11129 23.4695C9.69514 23.5472 10.292 23.5865 10.8874 23.5865C13.1648 23.5865 15.2806 23.0155 17.0303 22.0412C16.6394 22.0719 16.2457 22.0882 15.8531 22.0882C12.6169 22.0882 9.55962 21.0532 7.24452 19.1739Z" fill="white"/>
</svg>
