<svg width="88" height="24" viewBox="0 0 88 24" fill="none" xmlns="http://www.w3.org/2000/svg">
<path d="M44.007 1.99877C46.327 1.99877 48.6468 1.999 50.9668 1.99854C51.5472 1.99854 52.0917 2.13222 52.5842 2.44375C53.3503 2.92825 53.8146 3.61874 53.963 4.51498C53.9886 4.66889 53.9986 4.82698 53.9986 4.98298C54.0004 9.61925 53.9999 14.2555 53.9999 18.892C53.9999 20.3853 52.9327 21.67 51.4637 21.9446C51.2793 21.979 51.094 21.9971 50.9063 21.9971C46.3028 21.9967 41.699 21.9939 37.0955 21.9985C35.6946 21.9999 34.4036 21.0356 34.0753 19.5828C34.0233 19.3524 34.0005 19.1185 34.0005 18.8825C34 14.2583 34.0005 9.6339 34 5.00972C34 3.61642 34.8917 2.55465 35.9901 2.16988C36.3326 2.04991 36.6855 1.99877 37.0471 1.99877C39.3671 1.99877 41.6869 1.99877 44.007 1.99877ZM37.6184 15.3347C37.6184 15.3866 37.6184 15.4196 37.6184 15.4526C37.6184 16.0771 37.6184 16.7013 37.6184 17.3258C37.6184 17.356 37.6198 17.3864 37.6149 17.416C37.6051 17.4727 37.5637 17.5069 37.5091 17.5092C37.4521 17.5115 37.4119 17.4836 37.397 17.425C37.3898 17.3964 37.3887 17.3655 37.3887 17.3355C37.3873 16.8287 37.3863 16.3221 37.3859 15.8153C37.3854 15.4926 37.388 15.1697 37.3849 14.847C37.3824 14.5612 37.1499 14.336 36.8611 14.3334C36.5709 14.3309 36.3391 14.5494 36.3275 14.8367C36.3261 14.8728 36.3268 14.9091 36.3268 14.9453C36.3268 16.363 36.3268 17.7807 36.3268 19.1985C36.3268 19.2438 36.3277 19.2889 36.3291 19.3342C36.34 19.7039 36.4784 20.0217 36.7358 20.2835C37.1382 20.6929 37.6363 20.7945 38.178 20.6782C38.8256 20.5392 39.2674 19.9664 39.2681 19.3014C39.2688 18.5293 39.2695 17.757 39.2676 16.9849C39.2667 16.6332 39.1114 16.3549 38.8293 16.1547C38.458 15.8913 38.0776 15.6407 37.7009 15.3847C37.6793 15.3701 37.6563 15.3573 37.6191 15.3345L37.6184 15.3347ZM49.0523 9.54625C49.0258 9.55416 49.009 9.55997 48.9921 9.56392C48.81 9.6053 48.6279 9.64669 48.4459 9.68761C48.1713 9.74945 47.9051 9.83407 47.6614 9.97915C47.4291 10.1177 47.2359 10.2949 47.1126 10.5401C46.9817 10.8003 46.9606 11.0753 47.0027 11.359C47.0241 11.5038 47.0664 11.6412 47.1433 11.766C47.3198 12.0515 47.5756 12.1955 47.9127 12.1841C48.1329 12.1766 48.3394 12.1118 48.5352 12.0129C48.7149 11.9223 48.8544 11.7881 48.9542 11.6131C48.9793 11.5689 49.0034 11.5243 49.0351 11.4673C49.0841 11.6066 49.1151 11.7409 49.1885 11.8574C49.4841 11.7905 49.7707 11.7254 50.0528 11.6614C50.0226 11.5703 49.9837 11.4899 49.97 11.405C49.9461 11.2567 49.9261 11.1062 49.9249 10.9563C49.9198 10.3714 49.9233 9.78641 49.9226 9.20171C49.9226 9.0478 49.9103 8.89459 49.8703 8.7451C49.7798 8.40822 49.5719 8.18387 49.2283 8.1039C49.1092 8.07623 48.9832 8.06275 48.8614 8.0667C48.5328 8.0774 48.2175 8.15574 47.9195 8.29547C47.4844 8.49959 47.2168 8.83321 47.1452 9.31377C47.1336 9.39258 47.1312 9.47255 47.1238 9.56183C47.433 9.49208 47.7283 9.42536 48.0169 9.36026C48.0327 9.29354 48.0448 9.24076 48.058 9.18845C48.099 9.0278 48.1971 8.91342 48.3512 8.85739C48.4436 8.82391 48.5424 8.79671 48.6398 8.7909C48.8051 8.7809 48.9237 8.84716 48.9858 9.00967C48.9976 9.04059 49.0114 9.07221 49.0146 9.10453C49.0288 9.25053 49.04 9.39723 49.0523 9.54625ZM42.6495 11.6763C42.753 11.6526 42.8523 11.6293 42.9518 11.6068C43.5394 11.4747 44.1272 11.3429 44.7147 11.2109C44.798 11.1923 44.7966 11.1918 44.801 11.1049C44.8119 10.8935 44.8024 10.6834 44.7675 10.4743C44.727 10.2314 44.6575 9.99891 44.5229 9.79013C44.3576 9.53416 44.1279 9.37212 43.8256 9.31795C43.6145 9.28005 43.4057 9.29796 43.198 9.34422C42.8314 9.42606 42.5172 9.59879 42.2675 9.88289C42.0689 10.1089 41.9373 10.3711 41.8525 10.6575C41.7192 11.1072 41.6981 11.5645 41.7683 12.0264C41.8088 12.2936 41.8855 12.5498 42.0322 12.7802C42.2003 13.0443 42.4328 13.2198 42.7418 13.2837C42.9674 13.3305 43.1915 13.3086 43.4133 13.2537C43.7168 13.1784 43.9921 13.0494 44.223 12.8343C44.5315 12.547 44.6917 12.1834 44.7687 11.7767C44.7722 11.7581 44.7691 11.7386 44.7691 11.7135C44.4631 11.7823 44.1641 11.8495 43.8677 11.916C43.8472 11.9737 43.83 12.025 43.8109 12.0757C43.724 12.3098 43.5549 12.4514 43.3131 12.5033C43.122 12.5442 42.9504 12.5077 42.83 12.3401C42.6893 12.1438 42.6433 11.9204 42.6495 11.6763ZM36.5186 10.911C36.4993 11.0523 36.5063 13.8712 36.5258 13.9366C36.8218 13.8387 37.1059 13.8701 37.3849 14.0361C37.3849 13.9882 37.3849 13.9556 37.3849 13.9231C37.3849 13.4827 37.3838 13.0424 37.3856 12.6023C37.3861 12.4849 37.3917 12.3673 37.4031 12.2506C37.421 12.0669 37.4603 11.8876 37.5454 11.7214C37.647 11.5224 37.8025 11.3896 38.0234 11.3401C38.2541 11.2885 38.4143 11.3817 38.484 11.6063C38.4875 11.6177 38.4915 11.6296 38.4929 11.6414C38.504 11.74 38.5236 11.8384 38.5238 11.9369C38.5264 12.6788 38.5252 13.4207 38.5254 14.1625C38.5254 14.1972 38.5275 14.232 38.5291 14.2783C38.8221 14.2123 39.1032 14.1488 39.3864 14.0851C39.3878 14.0516 39.3901 14.0247 39.3901 13.9979C39.3918 13.2319 39.3955 12.4661 39.3927 11.7C39.3922 11.541 39.3753 11.381 39.3522 11.2237C39.3248 11.0377 39.2651 10.8605 39.1541 10.7047C39.0481 10.5557 38.9074 10.4583 38.7261 10.426C38.4629 10.379 38.2162 10.4283 37.9874 10.5641C37.7625 10.6975 37.5916 10.887 37.4456 11.1009C37.4317 11.1214 37.4156 11.1407 37.3873 11.1779C37.3822 11.0128 37.3898 10.8707 37.3819 10.7229C37.0843 10.788 36.7999 10.85 36.5186 10.9117V10.911ZM53.1873 8.40916C53.1734 8.33894 53.1655 8.27385 53.1471 8.21177C53.0271 7.81003 52.7839 7.52245 52.373 7.39783C52.1796 7.33901 51.9815 7.33925 51.7822 7.36761C51.2991 7.43666 50.9159 7.66752 50.6424 8.07298C50.3618 8.48867 50.2595 8.95876 50.2376 9.4507C50.2272 9.68598 50.2469 9.92033 50.2888 10.1523C50.3318 10.3913 50.4023 10.6208 50.5322 10.8284C50.7096 11.1121 50.9587 11.2892 51.2939 11.3399C51.5004 11.371 51.7022 11.348 51.9027 11.2987C52.1782 11.2311 52.4337 11.1207 52.6535 10.9372C52.949 10.6906 53.1103 10.3672 53.1834 9.99565C53.2029 9.89638 53.2127 9.79525 53.2287 9.68226C52.9278 9.74968 52.6439 9.81338 52.3556 9.87801C52.3482 9.90475 52.3428 9.93102 52.334 9.9559C52.2993 10.0549 52.2728 10.1586 52.2261 10.2516C52.1398 10.4232 51.9952 10.5236 51.8048 10.5604C51.6106 10.598 51.4574 10.5353 51.3523 10.3727C51.2993 10.2904 51.2565 10.1972 51.2302 10.1028C51.1196 9.7076 51.1137 9.30633 51.1865 8.90366C51.2179 8.73045 51.2716 8.56492 51.3679 8.41543C51.4832 8.23665 51.6453 8.13226 51.8592 8.11924C51.9889 8.11134 52.1024 8.15365 52.1882 8.25664C52.2512 8.33243 52.2868 8.42148 52.3145 8.51447C52.3228 8.54214 52.3319 8.5698 52.3414 8.59956C52.6253 8.53563 52.9004 8.47379 53.1873 8.40916ZM40.0819 10.8789C40.0819 10.9221 40.0819 10.9575 40.0819 10.9928C40.0819 11.6291 40.0812 12.2652 40.0821 12.9015C40.0821 13.0473 40.1065 13.1898 40.1647 13.3244C40.2732 13.5757 40.4562 13.7306 40.7348 13.7666C40.8613 13.7831 40.9801 13.7571 41.1003 13.7278C41.2556 13.6899 41.404 13.6343 41.539 13.5636V12.8522C41.4267 12.8801 41.3228 12.9108 41.217 12.9313C41.0694 12.9599 40.9866 12.8971 40.9668 12.7471C40.9587 12.6846 40.954 12.6211 40.9543 12.5579C40.9552 12.2143 40.9587 11.8707 40.9605 11.527C40.9619 11.2739 40.9622 11.0205 40.9629 10.7673C40.9629 10.7405 40.9629 10.7138 40.9629 10.6815C41.1726 10.6334 41.3767 10.5866 41.5865 10.5387V9.77432C41.3823 9.81919 41.181 9.86383 40.9661 9.91103V9.20287C40.669 9.26913 40.3844 9.3326 40.0951 9.39723V10.1059C39.9282 10.1447 39.7652 10.1823 39.5978 10.2212V10.9856C39.7596 10.95 39.9149 10.9156 40.0819 10.8789ZM34.9863 9.98659V15.0688C35.293 14.9997 35.5911 14.9325 35.8873 14.8658V9.78548C35.5839 9.85314 35.2884 9.91916 34.9863 9.98659ZM45.1732 12.7795C45.196 12.7764 45.2139 12.7753 45.2309 12.7716C45.469 12.7188 45.7071 12.666 45.9452 12.6123C46.0494 12.5888 46.0489 12.5881 46.0494 12.4754C46.051 11.9567 46.0491 11.4382 46.057 10.9196C46.0594 10.767 46.0791 10.6127 46.1107 10.4632C46.203 10.0273 46.4616 9.73899 46.8966 9.61832C46.9164 9.61274 46.9355 9.6053 46.9545 9.59903V8.59817C46.7753 8.63537 46.6116 8.69209 46.4642 8.7902C46.2498 8.93295 46.1452 9.15102 46.0498 9.38212C46.0394 9.18334 46.0291 8.98433 46.0182 8.77718C45.7266 8.84274 45.449 8.90528 45.1732 8.96736V12.7795ZM36.0689 18.3234V17.4941C36.0564 17.4922 36.0501 17.4897 36.0447 17.4908C35.7813 17.5536 35.5179 17.6168 35.2544 17.6801C35.0768 17.7226 34.9049 17.9044 34.9621 18.1704C35.0093 18.3903 35.2279 18.521 35.4541 18.4703C35.6069 18.4361 35.7587 18.3978 35.9108 18.3613C35.9631 18.3487 36.0154 18.3362 36.0689 18.3234ZM36.0705 16.413C36.0598 16.4105 36.0536 16.407 36.0482 16.4081C35.779 16.4723 35.5093 16.536 35.2405 16.6025C35.1628 16.6218 35.0979 16.6662 35.0465 16.7285C34.9321 16.8675 34.9187 17.0582 35.0124 17.2095C35.1028 17.356 35.2767 17.4299 35.4509 17.3904C35.6388 17.3478 35.8257 17.3009 36.0129 17.2553C36.0326 17.2504 36.0515 17.2425 36.0708 17.236L36.0705 16.413ZM36.0726 15.3331C36.061 15.3287 36.058 15.3261 36.0554 15.3268C35.7804 15.3919 35.5032 15.4498 35.2307 15.5249C35.0135 15.5847 34.9008 15.8246 34.9717 16.0394C35.0403 16.247 35.2449 16.3568 35.4707 16.3044C35.6467 16.2638 35.822 16.2207 35.9975 16.178C36.0229 16.1717 36.0473 16.1619 36.0726 16.1536V15.3331Z" fill="#21728A"/>
<path d="M49.0386 10.1784C49.0316 10.2904 49.0283 10.3981 49.0169 10.505C49.0021 10.6462 48.9735 10.7852 48.9107 10.914C48.7691 11.2053 48.5335 11.3511 48.2113 11.3552C48.0729 11.3571 47.975 11.286 47.9227 11.1609C47.849 10.9847 47.8544 10.7712 48.0255 10.6017C48.1524 10.476 48.3066 10.3932 48.4724 10.3351C48.6398 10.2763 48.8121 10.2319 48.9825 10.1821C48.9962 10.1782 49.0118 10.1798 49.0386 10.1784Z" fill="#21728A"/>
<path d="M43.9191 10.7196C43.501 10.8133 43.0878 10.9061 42.6649 11.0009C42.6649 10.9681 42.663 10.9454 42.6651 10.923C42.6807 10.7596 42.7193 10.6022 42.796 10.4562C42.9299 10.2014 43.1473 10.0717 43.4296 10.0563C43.5719 10.0487 43.6956 10.1049 43.7807 10.226C43.883 10.3718 43.9191 10.5364 43.9191 10.7196Z" fill="#21728A"/>
</svg>
