<?xml version="1.0" encoding="utf-8"?>
<!-- Generator: Adobe Illustrator 24.3.0, SVG Export Plug-In . SVG Version: 6.00 Build 0)  -->
<svg version="1.1" id="Layer_1" xmlns="http://www.w3.org/2000/svg" xmlns:xlink="http://www.w3.org/1999/xlink" x="0px" y="0px"
	 viewBox="0 0 116 48" style="enable-background:new 0 0 116 48;" xml:space="preserve">
<style type="text/css">
	.st0{fill-rule:evenodd;clip-rule:evenodd;fill:#FFFFFF;}
</style>
<path class="st0" d="M100.8,2.7c0.8,0.4,1.7,0.4,2.3,0.3c0.9,1.1,1.8,2.2,2.5,3.3l-1.4-0.6c-1.5-0.7-3.3,0-4,1.5l2.1,0.9
	c1.4,0.6,3,0.1,3.8-1.1c0.8,1.2,1.4,2.3,2,3.4l-0.6-0.5c-1.3-1-3.2-0.7-4.2,0.7L105,12c1.1,0.8,2.6,0.7,3.7-0.1
	c0.7,1.7,1.2,3.3,1.4,4.8l-0.8-0.9c-1.1-1.3-3-1.4-4.3-0.3l1.5,1.7c0.9,1.1,2.5,1.3,3.7,0.7c0.1,1.5,0.1,2.9-0.2,4.2l-0.5-1.2
	c-0.6-1.6-2.3-2.3-3.9-1.7l0.8,2.1c0.5,1.4,1.9,2.1,3.3,1.9c-0.2,0.9-0.6,1.8-1,2.6c-0.2,0.5-0.5,0.9-0.8,1.4l-0.2-1.2
	c-0.2-1.7-1.7-2.8-3.4-2.6l0.3,2.3c0.2,1.4,1.2,2.4,2.6,2.6c-0.8,1.2-1.8,2.2-2.9,3.2l0.2-1.6c0.2-1.7-1-3.2-2.7-3.3l-0.3,2.3
	c-0.2,1.5,0.7,2.8,2.1,3.2c-2.6,2.2-5.6,3.7-8.2,4.6c-0.3,0.1-0.4,0.4-0.3,0.6c0.1,0.3,0.4,0.4,0.6,0.3c2.7-0.9,5.8-2.5,8.6-4.8
	c0.8,1.1,2.2,1.6,3.6,1.1l2.1-0.8c-0.6-1.6-2.3-2.4-3.9-1.8l-0.3,0.1c0.8-0.8,1.6-1.7,2.3-2.7c1,1,2.6,1.2,3.9,0.4l1.9-1.3
	c-0.9-1.4-2.8-1.7-4.2-0.8l-0.8,0.5c0.2-0.4,0.5-0.8,0.7-1.3c0.4-0.9,0.8-1.8,1-2.7c1.2,0.6,2.7,0.4,3.7-0.7l1.5-1.7
	c-1.2-1.1-3.2-1-4.3,0.2l-0.6,0.7c0.2-1.3,0.3-2.7,0.2-4.2c1.4,0.2,2.8-0.5,3.3-1.9l0.8-2.1c-1.6-0.6-3.3,0.2-3.9,1.7l-0.4,1
	c-0.3-1.6-0.7-3.2-1.5-4.9c1.4,0,2.7-1.1,2.9-2.6l0.4-2.2c-1.6-0.3-3.2,0.9-3.5,2.5l-0.2,1.4c-0.6-1.3-1.3-2.6-2.2-3.9
	c1.2-0.4,2.1-1.6,2-3l-0.1-2.3c-1.7,0.1-3,1.5-2.9,3.2l0,0.7c-0.7-1-1.4-1.9-2.3-3c-0.2-0.6-0.7-1.5-1.7-2c-1.4-0.7-3.2-0.1-3.2-0.1
	S99.4,2,100.8,2.7z M15.2,3c-0.8,0.4-1.7,0.4-2.3,0.3c-0.9,1.1-1.8,2.2-2.5,3.3L11.8,6c1.5-0.7,3.3,0,4,1.5l-2.1,0.9
	c-1.4,0.6-3,0.1-3.8-1.1c-0.8,1.2-1.4,2.3-2,3.4l0.6-0.5c1.3-1,3.2-0.7,4.2,0.7L11,12.3c-1.1,0.8-2.6,0.7-3.7-0.1
	c-0.7,1.7-1.2,3.3-1.4,4.8L6.6,16c1.1-1.3,3-1.4,4.3-0.3l-1.5,1.7c-0.9,1.1-2.5,1.3-3.7,0.7c-0.1,1.5-0.1,2.9,0.2,4.2l0.5-1.2
	c0.6-1.6,2.3-2.3,3.9-1.7l-0.8,2.1c-0.5,1.4-1.9,2.1-3.3,1.9c0.2,0.9,0.6,1.8,1,2.6c0.2,0.5,0.5,0.9,0.8,1.4L8,26.2
	c0.2-1.7,1.7-2.8,3.4-2.6l-0.3,2.3c-0.2,1.4-1.2,2.4-2.6,2.6c0.8,1.2,1.8,2.2,2.9,3.2L11.2,30c-0.2-1.7,1-3.2,2.7-3.3l0.3,2.3
	c0.2,1.5-0.7,2.8-2.1,3.2c2.6,2.2,5.6,3.7,8.2,4.6c0.3,0.1,0.4,0.4,0.3,0.6c-0.1,0.3-0.4,0.4-0.6,0.3c-2.7-0.9-5.8-2.5-8.6-4.8
	C10.6,34,9.2,34.5,7.9,34l-2.1-0.8c0.6-1.6,2.3-2.4,3.9-1.8l0.3,0.1c-0.8-0.8-1.6-1.7-2.3-2.7c-1,1-2.6,1.2-3.9,0.4L1.9,28
	c0.9-1.4,2.8-1.7,4.2-0.8l0.8,0.5c-0.2-0.4-0.5-0.8-0.7-1.3c-0.4-0.9-0.8-1.8-1-2.7c-1.2,0.6-2.7,0.4-3.7-0.7L0,21.4
	c1.2-1.1,3.2-1,4.3,0.2l0.6,0.7c-0.2-1.3-0.3-2.7-0.2-4.2c-1.4,0.2-2.8-0.5-3.3-1.9l-0.8-2.1c1.6-0.6,3.3,0.2,3.9,1.7l0.4,1
	c0.3-1.6,0.7-3.2,1.5-4.9c-1.4,0-2.7-1.1-2.9-2.6L3.1,7c1.6-0.3,3.2,0.9,3.5,2.5l0.2,1.4C7.3,9.6,8.1,8.3,9,7c-1.2-0.4-2.1-1.6-2-3
	l0.1-2.3c1.7,0.1,3,1.5,2.9,3.2l0,0.7c0.7-1,1.4-1.9,2.3-3c0.2-0.6,0.7-1.5,1.7-2c1.4-0.7,3.2-0.1,3.2-0.1S16.6,2.3,15.2,3z M87,34
	H29l-3,7l3,7h58l3-7L87,34z M39.5,39.4h-1v-0.2c0-0.2-0.1-0.4-0.2-0.6c-0.1-0.2-0.3-0.3-0.6-0.3c-0.1,0-0.3,0-0.3,0.1
	c-0.1,0.1-0.2,0.1-0.2,0.2c-0.1,0.1-0.1,0.2-0.1,0.3c0,0.1,0,0.2,0,0.3c0,0.1,0,0.3,0,0.4c0,0.1,0,0.2,0.1,0.2s0.1,0.1,0.2,0.2
	c0.1,0.1,0.2,0.1,0.3,0.2l0.8,0.3c0.2,0.1,0.4,0.2,0.5,0.3c0.1,0.1,0.2,0.2,0.3,0.4c0.1,0.2,0.1,0.3,0.1,0.5c0,0.2,0,0.4,0,0.7
	c0,0.3,0,0.6-0.1,0.8c-0.1,0.3-0.2,0.5-0.3,0.6c-0.1,0.2-0.3,0.3-0.5,0.4c-0.2,0.1-0.5,0.2-0.8,0.2c-0.2,0-0.5,0-0.7-0.1
	c-0.2-0.1-0.4-0.2-0.5-0.4s-0.3-0.3-0.4-0.5C36,43.3,36,43.1,36,42.9v-0.4h1v0.3c0,0.2,0.1,0.4,0.2,0.5c0.1,0.1,0.3,0.2,0.6,0.2
	c0.2,0,0.3,0,0.4-0.1c0.1-0.1,0.2-0.1,0.2-0.2c0.1-0.1,0.1-0.2,0.1-0.3c0-0.1,0-0.3,0-0.4c0-0.2,0-0.3,0-0.5c0-0.1,0-0.2-0.1-0.3
	c0-0.1-0.1-0.1-0.2-0.2c-0.1,0-0.2-0.1-0.3-0.1l-0.7-0.3c-0.4-0.2-0.7-0.4-0.9-0.7c-0.1-0.3-0.2-0.7-0.2-1.1c0-0.3,0-0.5,0.1-0.8
	c0.1-0.2,0.2-0.4,0.3-0.6c0.1-0.2,0.3-0.3,0.5-0.4c0.2-0.1,0.5-0.2,0.8-0.2c0.3,0,0.5,0,0.7,0.1c0.2,0.1,0.4,0.2,0.5,0.4
	c0.3,0.3,0.5,0.7,0.5,1.1V39.4z M40.8,44.5v-7.1h1.5c0.3,0,0.6,0,0.8,0.1c0.2,0.1,0.4,0.2,0.6,0.4c0.1,0.2,0.2,0.4,0.3,0.6
	c0.1,0.2,0.1,0.4,0.1,0.7v0.3c0,0.2,0,0.4,0,0.5c0,0.1-0.1,0.2-0.1,0.3c-0.1,0.2-0.3,0.3-0.5,0.5c0.2,0.1,0.4,0.3,0.5,0.5
	c0.1,0.2,0.2,0.5,0.2,0.9v0.4c0,0.6-0.2,1.1-0.5,1.4c-0.3,0.3-0.8,0.5-1.5,0.5H40.8z M41.8,41.2v2.3h0.4c0.2,0,0.4,0,0.5-0.1
	c0.1-0.1,0.2-0.1,0.3-0.2s0.1-0.2,0.1-0.4c0-0.1,0-0.3,0-0.5c0-0.2,0-0.3,0-0.5c0-0.1-0.1-0.2-0.1-0.3c-0.1-0.1-0.2-0.2-0.3-0.2
	c-0.1,0-0.3-0.1-0.5-0.1H41.8z M41.8,38.3v2h0.5c0.3,0,0.6-0.1,0.7-0.2c0.1-0.2,0.2-0.4,0.2-0.8c0-0.3-0.1-0.6-0.2-0.7
	c-0.1-0.2-0.4-0.2-0.7-0.2H41.8z M48.8,42.9v-0.4h-1v0.3c0,0.1,0,0.3-0.1,0.3c0,0.1-0.1,0.2-0.2,0.2c-0.1,0.1-0.1,0.1-0.2,0.1
	c-0.1,0-0.1,0-0.2,0c-0.2,0-0.4-0.1-0.5-0.2c-0.1-0.1-0.1-0.3-0.1-0.5v-3.6c0-0.2,0-0.4,0.1-0.6c0.1-0.2,0.3-0.2,0.5-0.2
	c0.2,0,0.3,0.1,0.5,0.2c0.1,0.1,0.2,0.3,0.2,0.5v0.3h1V39c0-0.2,0-0.5-0.1-0.7c-0.1-0.2-0.2-0.4-0.3-0.5c-0.3-0.3-0.7-0.5-1.2-0.5
	c-0.2,0-0.5,0-0.7,0.1c-0.2,0.1-0.4,0.2-0.5,0.3c-0.1,0.1-0.3,0.3-0.3,0.5c-0.1,0.2-0.1,0.4-0.1,0.6v3.9c0,0.3,0,0.6,0.1,0.8
	c0.1,0.2,0.2,0.4,0.4,0.5s0.3,0.2,0.5,0.3s0.4,0.1,0.6,0.1c0.2,0,0.4,0,0.6-0.1c0.2-0.1,0.4-0.2,0.5-0.4c0.1-0.2,0.3-0.3,0.3-0.5
	C48.7,43.3,48.8,43.1,48.8,42.9z M54.5,42L54,39.4h0L53.5,42H54.5z M52,44.5l1.6-7.1h0.9l1.6,7.1h-1L54.7,43h-1.4L53,44.5H52z
	 M60.9,44.5l1.1-7.1h-1.1L60.4,42h0l-0.8-4.6h-0.8l-0.8,4.5h0l-0.5-4.5h-1.1l1.1,7.1h1l0.8-4.6h0l0.8,4.6H60.9z M64.8,42l-0.5-2.6h0
	L63.8,42H64.8z M62.3,44.5l1.6-7.1h0.9l1.6,7.1h-1L65,43h-1.4l-0.3,1.5H62.3z M68.4,40.6v-2.2h0.5c0.4,0,0.6,0.1,0.7,0.3
	c0.1,0.1,0.1,0.2,0.1,0.4c0,0.1,0,0.3,0,0.5s0,0.3,0,0.5c0,0.1-0.1,0.2-0.1,0.3c-0.1,0.1-0.1,0.2-0.2,0.2c-0.1,0-0.2,0.1-0.4,0.1
	H68.4z M67.3,37.4v7.1h1v-3H69l0.9,3H71l-1.1-3.2c0.3-0.2,0.6-0.4,0.7-0.7c0.1-0.3,0.2-0.7,0.2-1.1c0-1.4-0.6-2.1-1.8-2.1H67.3z
	 M72.1,44.5v-7.1h1.5c0.6,0,1,0.2,1.3,0.5c0.3,0.3,0.5,0.8,0.5,1.4v3.3c0,0.7-0.2,1.2-0.5,1.5c-0.3,0.3-0.8,0.5-1.4,0.5H72.1z
	 M73.1,38.3v5.2h0.5c0.3,0,0.5-0.1,0.6-0.2c0.1-0.1,0.2-0.4,0.2-0.7v-3.4c0-0.3-0.1-0.5-0.2-0.7c-0.1-0.2-0.3-0.2-0.6-0.2H73.1z
	 M79.1,39.4h1v-0.5c0-0.4-0.2-0.8-0.5-1.1c-0.2-0.2-0.3-0.3-0.6-0.4c-0.2-0.1-0.4-0.1-0.7-0.1c-0.3,0-0.6,0.1-0.8,0.2
	c-0.2,0.1-0.4,0.2-0.5,0.4c-0.1,0.2-0.3,0.4-0.3,0.6c-0.1,0.2-0.1,0.5-0.1,0.8c0,0.4,0.1,0.8,0.2,1.1c0.2,0.3,0.5,0.5,0.9,0.7
	l0.7,0.3c0.1,0.1,0.2,0.1,0.3,0.1c0.1,0,0.1,0.1,0.2,0.2c0,0.1,0.1,0.2,0.1,0.3s0,0.3,0,0.5c0,0.2,0,0.3,0,0.4c0,0.1,0,0.2-0.1,0.3
	c-0.1,0.1-0.1,0.2-0.2,0.2c-0.1,0-0.2,0.1-0.4,0.1c-0.3,0-0.4-0.1-0.6-0.2c-0.1-0.2-0.2-0.3-0.2-0.5v-0.3h-1v0.4
	c0,0.2,0,0.5,0.1,0.7c0.1,0.2,0.2,0.4,0.4,0.5c0.2,0.2,0.3,0.3,0.5,0.4c0.2,0.1,0.4,0.1,0.7,0.1c0.3,0,0.6-0.1,0.8-0.2
	c0.2-0.1,0.4-0.3,0.5-0.4c0.1-0.2,0.2-0.4,0.3-0.6c0.1-0.3,0.1-0.5,0.1-0.8c0-0.3,0-0.5,0-0.7c0-0.2-0.1-0.4-0.2-0.5
	c-0.1-0.2-0.2-0.3-0.3-0.4c-0.1-0.1-0.3-0.2-0.5-0.3l-0.8-0.3c-0.1-0.1-0.2-0.1-0.3-0.2c-0.1-0.1-0.1-0.1-0.2-0.2s-0.1-0.2-0.1-0.2
	c0-0.1,0-0.2,0-0.4c0-0.1,0-0.2,0-0.3c0-0.1,0.1-0.2,0.1-0.3c0.1-0.1,0.1-0.1,0.2-0.2c0.1-0.1,0.2-0.1,0.3-0.1
	c0.3,0,0.4,0.1,0.6,0.3c0.1,0.2,0.2,0.4,0.2,0.6V39.4z M45.4,7.7c0.6,0.3,1.2,0.5,2,0.5c0.7,0,1.4-0.2,2-0.5c0.6-0.3,1-0.7,1.4-1.3
	c0.3-0.6,0.5-1.2,0.5-1.9c0-0.7-0.2-1.3-0.5-1.8c-0.3-0.6-0.8-1-1.4-1.3c-0.6-0.3-1.2-0.5-2-0.5c-0.7,0-1.4,0.2-2,0.5
	c-0.6,0.3-1,0.7-1.4,1.3c-0.3,0.5-0.5,1.2-0.5,1.8c0,0.7,0.2,1.3,0.5,1.9C44.3,6.9,44.8,7.3,45.4,7.7z M48.5,6.5
	c-0.3,0.2-0.7,0.3-1.1,0.3c-0.4,0-0.8-0.1-1.1-0.3c-0.3-0.2-0.6-0.5-0.8-0.8c-0.2-0.3-0.3-0.7-0.3-1.2c0-0.4,0.1-0.8,0.3-1.2
	c0.2-0.3,0.5-0.6,0.8-0.8c0.3-0.2,0.7-0.3,1.1-0.3c0.4,0,0.8,0.1,1.1,0.3c0.3,0.2,0.6,0.5,0.8,0.8c0.2,0.3,0.3,0.7,0.3,1.2
	c0,0.4-0.1,0.8-0.3,1.2C49.1,6,48.8,6.3,48.5,6.5z M25.6,1h-1.6v7h1.6V1z M33.8,8V1h-1.6v4.2L28.8,1h-1.3v7H29V3.8L32.5,8H33.8z
	 M42.1,1v7h-1.3l-3.5-4.2V8h-1.6V1H37l3.5,4.2V1H42.1z M56.1,8h-1.6l-3-7h1.8l2.1,5l2.2-5h1.6L56.1,8z M61,6.5h3.2L64.9,8h1.7
	l-3.1-7h-1.6l-3.1,7h1.7L61,6.5z M62.6,2.6l1.1,2.7h-2.2L62.6,2.6z M68.6,2.3h-2.2V1h6.1v1.3h-2.2V8h-1.6V2.3z M75.2,1h-1.6v7h1.6V1
	z M80.4,8.1c-0.7,0-1.4-0.2-2-0.5c-0.6-0.3-1-0.7-1.4-1.3c-0.3-0.6-0.5-1.2-0.5-1.9c0-0.7,0.2-1.3,0.5-1.8c0.3-0.6,0.8-1,1.4-1.3
	c0.6-0.3,1.2-0.5,2-0.5c0.7,0,1.4,0.2,2,0.5c0.6,0.3,1,0.7,1.4,1.3c0.3,0.5,0.5,1.2,0.5,1.8c0,0.7-0.2,1.3-0.5,1.9
	c-0.3,0.5-0.8,1-1.4,1.3C81.8,8,81.1,8.1,80.4,8.1z M80.4,6.7c0.4,0,0.8-0.1,1.1-0.3c0.3-0.2,0.6-0.5,0.8-0.8
	c0.2-0.3,0.3-0.7,0.3-1.2c0-0.4-0.1-0.8-0.3-1.2c-0.2-0.3-0.4-0.6-0.8-0.8c-0.3-0.2-0.7-0.3-1.1-0.3c-0.4,0-0.8,0.1-1.1,0.3
	C79,2.7,78.7,3,78.5,3.3c-0.2,0.3-0.3,0.7-0.3,1.2c0,0.4,0.1,0.8,0.3,1.2C78.7,6,79,6.3,79.3,6.5C79.6,6.6,80,6.7,80.4,6.7z M90.7,8
	h1.3V1h-1.6v4.2L87,1h-1.3v7h1.6V3.8L90.7,8z M29.9,11h2v7h-2V11z M40.1,18v-7h-1.9v3.7L35.1,11h-1.6v7h1.9v-3.7l3.1,3.7H40.1z
	 M48.3,18.1c-0.7,0-1.4-0.2-2-0.5c-0.6-0.3-1-0.7-1.4-1.3c-0.3-0.6-0.5-1.2-0.5-1.9s0.2-1.3,0.5-1.9c0.3-0.6,0.8-1,1.4-1.3
	c0.6-0.3,1.2-0.5,2-0.5c0.6,0,1.2,0.1,1.7,0.3c0.5,0.2,0.9,0.6,1.3,1l-1.3,1.1c-0.5-0.5-1-0.8-1.7-0.8c-0.4,0-0.7,0.1-1,0.2
	c-0.3,0.2-0.5,0.4-0.7,0.7c-0.2,0.3-0.2,0.6-0.2,1s0.1,0.7,0.2,1.1c0.2,0.3,0.4,0.5,0.7,0.7c0.3,0.2,0.6,0.2,1,0.2
	c0.6,0,1.2-0.3,1.7-0.8l1.3,1.1c-0.3,0.4-0.8,0.8-1.3,1C49.5,18,49,18.1,48.3,18.1z M53.5,18l0.5-1.4h3l0.5,1.4h2.1l-3.1-7h-2
	l-3.1,7H53.5z M55.5,12.9l0.9,2.2h-1.8L55.5,12.9z M62.8,18.1c-0.6,0-1.1-0.1-1.6-0.2c-0.5-0.1-1-0.3-1.3-0.6l0.6-1.5
	c0.3,0.2,0.7,0.4,1.1,0.5c0.4,0.1,0.8,0.2,1.2,0.2c0.8,0,1.1-0.2,1.1-0.6c0-0.2-0.1-0.3-0.3-0.4c-0.2-0.1-0.6-0.2-1-0.3
	c-0.5-0.1-1-0.2-1.3-0.4c-0.4-0.1-0.7-0.3-0.9-0.6C60.1,14,60,13.6,60,13.1c0-0.4,0.1-0.8,0.3-1.2c0.2-0.3,0.6-0.6,1-0.8
	c0.5-0.2,1-0.3,1.7-0.3c0.5,0,0.9,0.1,1.4,0.2c0.4,0.1,0.8,0.2,1.2,0.4L65,12.9c-0.7-0.4-1.3-0.5-1.9-0.5c-0.4,0-0.7,0.1-0.9,0.2
	c-0.2,0.1-0.3,0.3-0.3,0.4s0.1,0.3,0.3,0.4c0.2,0.1,0.6,0.2,1,0.3c0.5,0.1,1,0.2,1.3,0.4c0.4,0.1,0.7,0.3,0.9,0.6
	c0.3,0.3,0.4,0.7,0.4,1.2c0,0.4-0.1,0.8-0.3,1.1c-0.2,0.3-0.6,0.6-1,0.8C64,18,63.5,18.1,62.8,18.1z M69,11h-2v7h2V11z M77.3,11v7
	h-1.6l-3.1-3.7V18h-1.9v-7h1.6l3.1,3.7V11H77.3z M80.4,17.7c0.6,0.3,1.3,0.5,2,0.5c0.7,0,1.4-0.2,2-0.5c0.6-0.3,1.1-0.7,1.4-1.3
	c0.3-0.6,0.5-1.2,0.5-1.9s-0.2-1.3-0.5-1.9c-0.3-0.6-0.8-1-1.4-1.3c-0.6-0.3-1.2-0.5-2-0.5c-0.7,0-1.4,0.2-2,0.5
	c-0.6,0.3-1.1,0.7-1.4,1.3c-0.3,0.6-0.5,1.2-0.5,1.9s0.2,1.3,0.5,1.9C79.4,16.9,79.8,17.4,80.4,17.7z M83.4,16.2
	c-0.3,0.2-0.6,0.2-1,0.2c-0.4,0-0.7-0.1-1-0.2c-0.3-0.2-0.5-0.4-0.7-0.7c-0.2-0.3-0.2-0.7-0.2-1.1s0.1-0.7,0.2-1
	c0.2-0.3,0.4-0.5,0.7-0.7c0.3-0.2,0.6-0.2,1-0.2c0.4,0,0.7,0.1,1,0.2c0.3,0.2,0.5,0.4,0.7,0.7c0.2,0.3,0.2,0.6,0.2,1
	s-0.1,0.7-0.2,1.1C83.9,15.9,83.6,16.1,83.4,16.2z M32.1,21l-2.4,7H29l-2-6l-2.1,6h-0.8l-2.4-7h0.8l2,6l2.1-6h0.7l2.1,6l2.1-6H32.1z
	 M34.4,21h-0.7v7h0.7V21z M42.7,21v7h-0.6l-4.5-5.7V28h-0.7v-7h0.6l4.5,5.7V21H42.7z M51.1,28v-7h-0.7v5.7L45.8,21h-0.6v7h0.7v-5.7
	l4.5,5.7H51.1z M58.5,27.4V28h-5v-7h4.8v0.6h-4.1v2.5h3.6v0.6h-3.6v2.6H58.5z M63.6,25.8l1.6,2.2H66l-1.7-2.4
	c0.5-0.2,0.9-0.4,1.2-0.8c0.3-0.4,0.4-0.8,0.4-1.4c0-0.7-0.3-1.3-0.8-1.8c-0.5-0.4-1.2-0.6-2.1-0.6h-2.6v7h0.7v-2.2h1.9
	C63.2,25.8,63.4,25.8,63.6,25.8z M64.6,24.7c-0.4,0.3-0.9,0.5-1.6,0.5h-1.9v-3.5H63c0.7,0,1.2,0.2,1.6,0.5c0.4,0.3,0.5,0.7,0.5,1.3
	C65.2,24,65,24.4,64.6,24.7z M74.8,27.4V28h-4.9v-0.5l2.9-2.9c0.4-0.4,0.6-0.7,0.7-0.9c0.1-0.3,0.2-0.5,0.2-0.8c0-0.4-0.1-0.7-0.4-1
	c-0.3-0.2-0.7-0.4-1.2-0.4c-0.8,0-1.5,0.3-1.9,0.8l-0.5-0.4c0.3-0.3,0.6-0.6,1-0.7c0.4-0.2,0.9-0.3,1.4-0.3c0.7,0,1.3,0.2,1.7,0.5
	c0.4,0.3,0.6,0.8,0.6,1.4c0,0.4-0.1,0.7-0.2,1c-0.2,0.3-0.5,0.7-0.9,1.1L71,27.4H74.8z M77.2,27.6c0.4,0.3,0.9,0.4,1.4,0.4
	s1-0.1,1.4-0.4c0.4-0.3,0.8-0.7,1-1.2c0.2-0.5,0.4-1.2,0.4-1.9s-0.1-1.4-0.4-1.9c-0.2-0.5-0.6-1-1-1.2c-0.4-0.3-0.9-0.4-1.4-0.4
	s-1,0.1-1.4,0.4c-0.4,0.3-0.8,0.7-1,1.2c-0.2,0.5-0.3,1.2-0.3,1.9s0.1,1.4,0.3,1.9C76.5,26.9,76.8,27.3,77.2,27.6z M79.8,27.1
	c-0.3,0.2-0.7,0.3-1.1,0.3c-0.4,0-0.8-0.1-1.1-0.3c-0.3-0.2-0.5-0.6-0.7-1c-0.2-0.4-0.3-1-0.3-1.6s0.1-1.1,0.3-1.6
	c0.2-0.4,0.4-0.8,0.7-1c0.3-0.2,0.7-0.3,1.1-0.3c0.4,0,0.8,0.1,1.1,0.3c0.3,0.2,0.6,0.6,0.7,1c0.2,0.4,0.3,1,0.3,1.6
	s-0.1,1.1-0.3,1.6C80.3,26.5,80.1,26.8,79.8,27.1z M87.5,27.4V28h-4.9v-0.5l2.9-2.9c0.4-0.4,0.6-0.7,0.7-0.9
	c0.1-0.3,0.2-0.5,0.2-0.8c0-0.4-0.1-0.7-0.4-1c-0.3-0.2-0.7-0.4-1.2-0.4c-0.8,0-1.5,0.3-1.9,0.8l-0.5-0.4c0.3-0.3,0.6-0.6,1-0.7
	c0.4-0.2,0.9-0.3,1.4-0.3c0.7,0,1.3,0.2,1.7,0.5c0.4,0.3,0.6,0.8,0.6,1.4c0,0.4-0.1,0.7-0.2,1c-0.2,0.3-0.5,0.7-0.9,1.1l-2.4,2.3
	H87.5z M89.9,27.6c0.4,0.3,0.9,0.4,1.5,0.4s1-0.1,1.4-0.4c0.4-0.3,0.8-0.7,1-1.2c0.2-0.5,0.4-1.2,0.4-1.9s-0.1-1.4-0.4-1.9
	c-0.2-0.5-0.6-1-1-1.2c-0.4-0.3-0.9-0.4-1.4-0.4s-1,0.1-1.5,0.4c-0.4,0.3-0.8,0.7-1,1.2c-0.2,0.5-0.3,1.2-0.3,1.9s0.1,1.4,0.3,1.9
	C89.1,26.9,89.5,27.3,89.9,27.6z M92.4,27.1c-0.3,0.2-0.7,0.3-1.1,0.3s-0.8-0.1-1.1-0.3c-0.3-0.2-0.5-0.6-0.7-1s-0.3-1-0.3-1.6
	s0.1-1.1,0.3-1.6s0.4-0.8,0.7-1c0.3-0.2,0.7-0.3,1.1-0.3s0.8,0.1,1.1,0.3c0.3,0.2,0.6,0.6,0.7,1s0.3,1,0.3,1.6s-0.1,1.1-0.3,1.6
	S92.7,26.8,92.4,27.1z"/>
</svg>
