<?xml version="1.0" encoding="utf-8"?>
<!-- Generator: Adobe Illustrator 24.3.0, SVG Export Plug-In . SVG Version: 6.00 Build 0)  -->
<svg version="1.1" id="Layer_1" xmlns="http://www.w3.org/2000/svg" xmlns:xlink="http://www.w3.org/1999/xlink" x="0px" y="0px"
	 viewBox="0 0 127 48" style="enable-background:new 0 0 127 48;" xml:space="preserve">
<style type="text/css">
	.st0{fill-rule:evenodd;clip-rule:evenodd;fill:#FFFFFF;}
</style>
<path class="st0" d="M15.2,2.7c-0.8,0.4-1.7,0.4-2.3,0.3c-0.9,1.1-1.8,2.2-2.5,3.3c1.8-1.1,4.4-1.4,5.4,0.9C14,8.2,11.3,9.3,9.9,7
	c-0.8,1.2-1.4,2.3-2,3.4c1.4-1.3,3.7-1.5,4.8,0.2c-1.5,1.2-3.7,2.8-5.5,1.2c-0.7,1.7-1.2,3.3-1.4,4.8C7,15,9.2,14,10.9,15.5
	c-1.2,1.6-3.1,3.6-5.2,2.4c-0.1,1.5-0.1,2.9,0.2,4.2c0.5-2,2.2-3.9,4.4-3c-0.6,1.9-1.7,4.6-4.1,4c0.4,1.4,1,2.8,1.7,4
	c0-2,1.2-4.1,3.5-3.8c-0.1,1.9-0.5,4.6-2.8,4.9c0.8,1.2,1.8,2.2,2.9,3.2c-0.5-2,0-4.6,2.5-4.9c0.4,2,0.6,4.8-1.8,5.5
	c2.6,2.2,5.6,3.7,8.2,4.6c1.4,3-7.6-2.6-8.9-3.8c-1.3,2.1-3.9,1.1-5.7,0.3c0.6-1.7,2.6-2.4,4.2-1.6c-0.8-0.8-1.6-1.7-2.3-2.7
	c-1.7,1.9-4.2,0.4-5.7-0.9c1.2-1.8,3.5-1.6,5-0.3c-0.7-1.3-1.3-2.6-1.7-4c-2.1,1.2-4-0.8-5.2-2.3c1.5-1.4,3.8-0.7,4.9,0.9
	c-0.2-1.3-0.3-2.7-0.2-4.2c-2.4,0.5-3.5-2.1-4.1-4c2-0.8,3.8,0.7,4.3,2.7c0.3-1.6,0.7-3.2,1.5-4.9c-2.5,0-3.1-2.8-3.3-4.8
	c2.4-0.4,3.6,1.8,3.7,3.9C7.3,9.4,8.1,8.1,9,6.7C6.7,6.1,6.9,3.3,7.1,1.5c2,0.1,3.2,2,2.9,3.9c1.6-2.1,4.1-6.8,7.2-5
	C17.1,0.3,16.6,2,15.2,2.7z M111.8,2.7c0.8,0.4,1.7,0.4,2.3,0.3c0.9,1.1,1.8,2.2,2.5,3.3c-1.8-1.1-4.4-1.4-5.4,0.9
	c1.8,1,4.5,2.1,5.9-0.2c0.8,1.2,1.4,2.3,2,3.4c-1.4-1.3-3.7-1.5-4.8,0.2c1.5,1.2,3.7,2.8,5.5,1.2c0.7,1.7,1.2,3.3,1.4,4.8
	c-1.1-1.7-3.4-2.7-5.1-1.2c1.2,1.6,3.1,3.6,5.2,2.4c0.1,1.5,0.1,2.9-0.2,4.2c-0.5-2-2.2-3.9-4.4-3c0.6,1.9,1.7,4.6,4.1,4
	c-0.4,1.4-1,2.8-1.7,4c0-2-1.2-4.1-3.5-3.8c0.1,1.9,0.5,4.6,2.8,4.9c-0.8,1.2-1.8,2.2-2.9,3.2c0.5-2,0-4.6-2.5-4.9
	c-0.4,2-0.6,4.8,1.8,5.5c-2.6,2.2-5.6,3.7-8.2,4.6c-1.4,3,7.6-2.6,8.9-3.8c1.3,2.1,3.9,1.1,5.7,0.3c-0.6-1.7-2.6-2.4-4.2-1.6
	c0.8-0.8,1.6-1.7,2.3-2.7c1.7,1.9,4.2,0.4,5.7-0.9c-1.2-1.8-3.5-1.6-5-0.3c0.7-1.3,1.3-2.6,1.7-4c2.1,1.2,4-0.8,5.2-2.3
	c-1.5-1.4-3.8-0.7-4.9,0.9c0.2-1.3,0.3-2.7,0.2-4.2c2.4,0.5,3.5-2.1,4.1-4c-2-0.8-3.8,0.7-4.3,2.7c-0.3-1.6-0.7-3.2-1.5-4.9
	c2.5,0,3.1-2.8,3.3-4.8c-2.4-0.4-3.6,1.8-3.7,3.9c-0.6-1.3-1.3-2.6-2.2-3.9c2.2-0.7,2.1-3.4,1.9-5.2c-2,0.1-3.2,2-2.9,3.9
	c-1.6-2.1-4.1-6.8-7.2-5C109.9,0.3,110.4,2,111.8,2.7z M29.5,34h67.1l3.5,7l-3.5,7H29.5L26,41L29.5,34z M44.3,39.4h-1
	c0-2.6-3.6,0.1,0.5,1.4c2.4,2.8-2.8,5.9-3,1.7h1c0.2,2.7,2.7-0.2,0.9-1.1c-0.5-0.2-1.4-0.5-1.6-1C39.5,37.4,44.6,35.9,44.3,39.4z
	 M38.5,42L38,39.4h0L37.5,42H38.5z M36,44.5l1.6-7.1h0.8l1.6,7.1h-1L38.7,43h-1.4L37,44.5H36z M45.6,37.4v7.1h1
	c0-0.8-0.1-2.5,0.5-3.2l1.2,3.2h1.1l-1.7-4.3l1.4-2.8h-1l-1.5,3.2h0v-3.2H45.6z M50.3,39.1c0-2.5,3.9-2.1,3.4,0.4h-1
	c0.2-0.8-0.5-1.4-1.2-0.9c-0.4,0.2-0.1,3.9-0.2,4.3c-0.1,0.7,0.7,0.9,1.2,0.6c0.4-0.2,0.2-1.5,0.2-1.9h-0.8v-0.9h1.8
	c0,0.6,0.1,2.5-0.1,3c-0.6,1.3-2.6,1.3-3.1,0C50.1,43.1,50.4,39.6,50.3,39.1z M56.7,39.4l0.5,2.6h-1L56.7,39.4L56.7,39.4z
	 M56.2,37.4l-1.6,7.1h1L56,43h1.4l0.3,1.5h1l-1.6-7.1H56.2z M59.7,44.5v-7.1h1l1.3,3.8h0l1.3-3.8h1v7.1h-1v-4.3h0l-1,3.1h-0.5
	l-1-3.1h0v4.3H59.7z M65.7,37.4v7.1c0.8,0,2.4,0.2,2.8-0.5c0.6-0.7,0.8-2.7-0.2-3.2c1-0.5,0.9-2.1,0.3-2.8
	C68,37.2,66.6,37.4,65.7,37.4z M66.8,43.5v-2.3C68.6,40.7,68.6,43.9,66.8,43.5z M66.8,40.3v-2C68.5,37.9,68.5,40.7,66.8,40.3z
	 M70.5,44.5v-7.1h1v6.1h2v1H70.5z M74.7,37.4v7.1h3v-1h-2v-2.1h1.8v-1h-1.8v-2.1h2v-1H74.7z M79.9,38.3v2.2
	C81.9,41,81.9,37.9,79.9,38.3z M78.9,44.5v-7.1h1.6c1.9-0.3,2.5,3,0.9,3.9l1.1,3.2h-1.1l-1-3h-0.6v3H78.9z M85.9,39.4h1
	c0.3-3.5-4.8-2-3.2,1c0.2,0.5,1.1,0.8,1.6,1c1.9,0.9-0.7,3.8-0.9,1.1h-1c-0.4,2.7,3.9,2.7,3.5,0c0.3-1.7-1.3-1.9-2.3-2.6
	C83.9,38.4,86.1,37.6,85.9,39.4z M88,38.5l0.3-0.5l1,0.6l0-1.2h0.6l0,1.2l1-0.6l0.3,0.5l-1,0.6l1,0.5l-0.3,0.5l-1-0.6l0,1.2h-0.6
	l0-1.2l-1,0.6L88,39.6l1-0.5L88,38.5z M52.7,8.1c-1,0-2.1-0.3-2.8-0.8l0.5-1.2c3.2,2,5.7-0.6,0.8-1.3c-3.8-2.3,1.7-5.3,4.1-3.3
	l-0.5,1.2C54,1.9,50.5,1.9,52,3.5C55.9,3.8,57.5,7.8,52.7,8.1z M41.7,5c-0.2-0.3-0.5-0.5-0.9-0.6c3.5-3.4-3-3.6-5.1-3.4v7
	C37.7,8,43.6,8.7,41.7,5z M37.3,3.9V2.2C41.1,1.7,41.1,4.3,37.3,3.9z M40.1,6.6c-0.5,0.4-2.2,0.2-2.9,0.2V5.1
	C38.3,5,41.6,4.9,40.1,6.6z M48.9,8V6.7h-3.8V5.1h3.2V3.8h-3.2V2.3h3.7V1h-5.3v7H48.9z M56.1,2.3h2.2V8H60V2.3h2.2V1h-6.1V2.3z
	 M72.7,1v7h-1.3l-3.5-4.2V8h-1.6V1h1.3l3.5,4.2V1H72.7z M80,8V6.7h-3.8V5.1h3.2V3.8h-3.2V2.3h3.7V1h-5.3v7H80z M92,1l-2.3,7h-1.7
	l-1.5-4.7L84.8,8h-1.7l-2.3-7h1.7L84,5.9L85.7,1h1.5l1.6,5l1.6-5H92z M42.9,17.7c1.6,0.8,3.9,0.6,5-0.9l-1.3-1.1
	c-4.6,3.8-4.6-6.2,0-2.4l1.3-1.1C44.2,7.9,37.8,14.6,42.9,17.7z M53.5,16.6h-3L50,18h-2l3.1-7h1.9l3.1,7h-2.1L53.5,16.6z M53,15.2
	l-0.9-2.2l-0.9,2.2H53z M57.7,17.9c2.6,1.3,7-1.9,3.4-3.8c-4-0.5-2.9-2.7,0.4-1.2l0.6-1.5c-2.1-1.4-7.1-0.3-5.3,2.8
	c0.7,0.9,2.3,0.9,3.3,1.3c1.4,1.5-2.5,1-3.1,0.3l-0.6,1.5C56.8,17.6,57.2,17.8,57.7,17.9z M63.6,11h2v7h-2V11z M73.8,18v-7h-1.9v3.7
	L68.8,11h-1.6v7h1.9v-3.7l3.1,3.7H73.8z M79,18.1c-5.1,0.3-5.1-7.5,0-7.3C84,10.6,84,18.4,79,18.1z M79,16.5c2.5,0.1,2.5-4.1,0-4
	C76.5,12.4,76.5,16.6,79,16.5z M22,27.8c4.7,1.5,5.7-3.6,0.7-3.9c-2.7-1.6,1.4-3.3,2.9-1.8l0.2-0.6c-4.5-2.5-7.1,3.1-1.3,3.6
	c2.9,1.8-2.1,3.2-3.3,1.4l-0.3,0.6C21.1,27.4,21.5,27.6,22,27.8z M33.7,21v7H33v-3.2h-4.4V28h-0.7v-7h0.7v3.1H33V21H33.7z
	 M37.4,27.6c4.1,2.4,7.9-3.8,3.8-6.2C37.1,19,33.2,25.2,37.4,27.6z M40.8,27c-3.3,1.9-6.3-3.2-3-5.1C41,20,44.1,25.1,40.8,27z
	 M49.6,28L48,25.8c-0.4,0.1-2,0-2.4,0V28h-0.7v-7c1.3,0.1,3.8-0.3,4.7,0.6c1.3,1.1,0.9,3.5-0.8,4l1.7,2.4H49.6z M47.4,25.1
	c1.8,0.2,2.9-1.9,1.6-3.1c-0.6-0.7-2.5-0.4-3.4-0.5v3.5H47.4z M51,21.6h2.5V28h0.7v-6.4h2.5V21H51V21.6z M60.9,21h0.7v6.4h3.9V28
	h-4.7V21z M67.7,21H67v7h0.7V21z M72.1,28.1c-0.9,0-2-0.3-2.6-0.9l0.3-0.6c1.2,1.8,6.2,0.4,3.3-1.4c-5.8-0.5-3.1-6.1,1.3-3.6
	l-0.2,0.6c-1.2-1-4.7-0.7-3.5,1.4c1,0.9,2.9,0.6,3.7,1.6C75.5,26.6,73.8,28.3,72.1,28.1z M75.3,21.6h2.5V28h0.7v-6.4H81V21h-5.7
	V21.6z M89.4,27.4V28h-4.9v-0.5c0.6-0.6,3.3-3.1,3.7-3.8c1.1-2.2-2.3-2.7-3.4-1.3l-0.5-0.4c1.5-1.9,6-1,4.6,1.9
	c-0.3,0.8-2.7,2.8-3.3,3.5H89.4z M91.8,27.6c3.8,2.2,5.8-4.3,2.9-6.3C90.9,19.1,88.9,25.7,91.8,27.6z M94.3,27.1
	c-3,1.8-4.2-3.6-2.1-5.1C95.2,20.2,96.3,25.6,94.3,27.1z M99.2,28h-0.7v-6.4h-1.7V21h2.4V28z M105.4,21.9c-1.2-1.6-4.6-1.1-4.5,1.2
	c-0.1,2.3,3.6,2.9,4.5,0.9c0.5,2.4-1.7,4.3-3.8,3.1l-0.3,0.6C104.9,29.7,107.5,24.6,105.4,21.9z M104.2,24.4c-1.6,0.9-3.7-1-2.2-2.4
	C103.7,20.5,106.6,23.1,104.2,24.4z"/>
</svg>
