<svg width="80" height="28" viewBox="0 0 80 28" fill="none" xmlns="http://www.w3.org/2000/svg">
<path d="M31.4412 21.9528C31.3667 21.879 31.2782 21.8213 31.1757 21.7805C31.0733 21.7394 30.9611 21.7188 30.8392 21.7188C30.7748 21.7188 30.7078 21.7242 30.6383 21.7353C30.5688 21.7464 30.5007 21.7657 30.4341 21.7935C30.3674 21.8213 30.3039 21.8598 30.2438 21.909C30.1836 21.958 30.1312 22.0199 30.0869 22.0947C30.0152 21.9775 29.9182 21.8855 29.7956 21.8189C29.6731 21.7521 29.5329 21.7188 29.3753 21.7188C29.3222 21.7188 29.2675 21.7235 29.2108 21.7332C29.1543 21.7426 29.0981 21.759 29.0422 21.7826C28.9862 21.806 28.9328 21.8379 28.882 21.8783C28.8311 21.9184 28.7849 21.9694 28.7434 22.031V21.7738H28.2962V23.8788H28.7477V22.7121C28.7477 22.6226 28.7619 22.5432 28.7906 22.4734C28.8193 22.4039 28.8576 22.3459 28.9056 22.2988C28.9536 22.2522 29.0099 22.2165 29.0743 22.1922C29.1388 22.1682 29.2076 22.1562 29.2808 22.1562C29.4326 22.1562 29.5506 22.2038 29.6344 22.2988C29.7182 22.3943 29.7601 22.5304 29.7601 22.7076V23.8788H30.2116V22.7121C30.2116 22.6226 30.2258 22.5432 30.2545 22.4734C30.2832 22.4039 30.3215 22.3459 30.3695 22.2988C30.4176 22.2522 30.4738 22.2165 30.5383 22.1922C30.6028 22.1682 30.6716 22.1562 30.7447 22.1562C30.8966 22.1562 31.0145 22.2038 31.0983 22.2988C31.1821 22.3943 31.224 22.5304 31.224 22.7076V23.8788H31.6755V22.5559C31.6755 22.4329 31.6551 22.32 31.6143 22.2177C31.5734 22.1151 31.5157 22.0269 31.4412 21.9528Z" fill="#21728A"/>
<path d="M33.8218 21.7738V22.0286C33.7478 21.935 33.656 21.8598 33.5464 21.8035C33.4368 21.7471 33.3058 21.7188 33.1533 21.7188C33.0037 21.7188 32.8646 21.7464 32.7357 21.8013C32.6069 21.8562 32.4943 21.9327 32.3981 22.031C32.3018 22.1291 32.2263 22.246 32.1715 22.3813C32.1167 22.5168 32.0894 22.6651 32.0894 22.8262C32.0894 22.9875 32.1167 23.1357 32.1715 23.2714C32.2263 23.4068 32.3018 23.5237 32.3981 23.6216C32.4943 23.7198 32.6069 23.7964 32.7357 23.8513C32.8646 23.9062 33.0037 23.9338 33.1533 23.9338C33.3058 23.9338 33.4368 23.9059 33.5464 23.8503C33.656 23.7946 33.7478 23.7198 33.8218 23.6261V23.8788H34.2861V21.7738H33.8218ZM33.8041 23.0944C33.773 23.1765 33.7293 23.2475 33.6731 23.3076C33.6167 23.3675 33.5494 23.4149 33.471 23.4493C33.3924 23.4837 33.3051 23.5009 33.2088 23.5009C33.1081 23.5009 33.0182 23.483 32.939 23.4471C32.8597 23.4113 32.7927 23.363 32.7379 23.3021C32.6831 23.2412 32.6409 23.1699 32.6113 23.0878C32.5817 23.0058 32.567 22.9186 32.567 22.8262C32.567 22.734 32.5817 22.6468 32.6113 22.5648C32.6409 22.4828 32.6831 22.4114 32.7379 22.3505C32.7927 22.2899 32.8597 22.2415 32.939 22.2056C33.0182 22.1698 33.1081 22.1518 33.2088 22.1518C33.3051 22.1518 33.3924 22.169 33.471 22.2035C33.5494 22.2378 33.6167 22.285 33.6731 22.345C33.7293 22.4053 33.773 22.4761 33.8041 22.5583C33.8352 22.6403 33.8507 22.7295 33.8507 22.8262C33.8507 22.9229 33.8352 23.0123 33.8041 23.0944Z" fill="#21728A"/>
<path d="M35.8757 22.6217L35.6558 22.5886C35.6069 22.5814 35.5611 22.573 35.5181 22.5633C35.4751 22.5539 35.4382 22.541 35.4071 22.525C35.376 22.509 35.3512 22.4884 35.3327 22.4635C35.3141 22.4385 35.3049 22.4077 35.3049 22.3712C35.3049 22.2966 35.34 22.2361 35.4104 22.1899C35.4807 22.1439 35.5795 22.1208 35.7069 22.1208C35.7735 22.1208 35.839 22.1265 35.9035 22.1384C35.9679 22.1501 36.029 22.1647 36.0868 22.1824C36.1445 22.1999 36.1971 22.2193 36.2445 22.2406C36.2918 22.2617 36.3318 22.282 36.3644 22.3009L36.5643 21.9428C36.4532 21.8724 36.3237 21.8179 36.1756 21.779C36.0275 21.7403 35.8698 21.7208 35.7025 21.7208C35.5661 21.7208 35.444 21.7365 35.336 21.7681C35.2279 21.7995 35.1357 21.8443 35.0594 21.9021C34.9831 21.96 34.9247 22.0308 34.8839 22.1142C34.8432 22.1978 34.8229 22.2915 34.8229 22.3952C34.8229 22.5653 34.8839 22.7027 35.0061 22.8074C35.1283 22.9122 35.3078 22.9807 35.5447 23.0128L35.7669 23.0414C35.8942 23.059 35.9876 23.0872 36.0468 23.1261C36.106 23.1649 36.1356 23.2143 36.1356 23.2744C36.1356 23.3534 36.0948 23.416 36.0135 23.4621C35.932 23.5083 35.8113 23.5313 35.6514 23.5313C35.564 23.5313 35.4859 23.5255 35.417 23.5139C35.3482 23.5021 35.2853 23.4864 35.2283 23.4666C35.1712 23.4469 35.1202 23.4243 35.075 23.3986C35.0298 23.3729 34.988 23.3454 34.9495 23.3161L34.734 23.661C34.811 23.7181 34.8918 23.7644 34.9762 23.7995C35.0605 23.8347 35.1435 23.8622 35.2249 23.8819C35.3063 23.9015 35.3834 23.9147 35.4559 23.9214C35.5284 23.9279 35.5921 23.9313 35.6469 23.9313C35.7995 23.9313 35.936 23.9144 36.0567 23.8807C36.1774 23.8472 36.2789 23.7999 36.3611 23.739C36.4432 23.6782 36.5061 23.6058 36.5498 23.5215C36.5935 23.4372 36.6154 23.3447 36.6154 23.2437C36.6154 23.0635 36.5502 22.9231 36.4199 22.8228C36.2896 22.7223 36.1082 22.6554 35.8757 22.6217Z" fill="#21728A"/>
<path d="M40.9731 22.3744C40.9235 22.2392 40.8546 22.1227 40.7665 22.0252C40.6785 21.9278 40.5726 21.8523 40.4489 21.7988C40.3253 21.7454 40.1894 21.7186 40.0414 21.7186C39.8844 21.7186 39.7411 21.7454 39.6115 21.7988C39.482 21.8523 39.3706 21.9278 39.2773 22.0252C39.1839 22.1227 39.1114 22.2393 39.0596 22.3755C39.0078 22.5118 38.9819 22.6621 38.9819 22.826C38.9819 22.9931 39.0085 23.1447 39.0618 23.281C39.1151 23.4173 39.1899 23.5336 39.2862 23.6302C39.3825 23.7269 39.4972 23.8016 39.6305 23.8545C39.7638 23.9071 39.9103 23.9335 40.0703 23.9335C40.2316 23.9335 40.3853 23.9116 40.5312 23.8677C40.677 23.8236 40.815 23.7467 40.9453 23.6368L40.7144 23.3096C40.6255 23.3798 40.5274 23.4344 40.4201 23.4732C40.3127 23.5121 40.2056 23.5313 40.0991 23.5313C40.0235 23.5313 39.951 23.5213 39.8815 23.5007C39.8118 23.4801 39.7488 23.4484 39.6927 23.405C39.6363 23.362 39.5883 23.3067 39.5483 23.2392C39.5083 23.1718 39.4809 23.0904 39.4661 22.9953H41.0387C41.0416 22.9689 41.0438 22.9411 41.0454 22.9118C41.0468 22.8823 41.0475 22.8532 41.0475 22.8239C41.0475 22.6597 41.0227 22.51 40.9731 22.3744ZM39.4683 22.6458C39.4802 22.5696 39.5008 22.4996 39.5306 22.4359C39.56 22.3723 39.5982 22.3173 39.6449 22.2713C39.6915 22.2253 39.7471 22.1898 39.8114 22.1647C39.8759 22.1397 39.9496 22.1274 40.0325 22.1274C40.1806 22.1274 40.3012 22.1728 40.3945 22.2634C40.4878 22.3544 40.547 22.4818 40.5721 22.6458H39.4683Z" fill="#21728A"/>
<path d="M46.934 21.7736V22.0284C46.86 21.9347 46.7682 21.8596 46.6587 21.8033C46.549 21.7469 46.418 21.7186 46.2655 21.7186C46.116 21.7186 45.9767 21.7462 45.8479 21.8011C45.7191 21.8559 45.6065 21.9325 45.5103 22.0308C45.414 22.1289 45.3384 22.2458 45.2838 22.381C45.2289 22.5166 45.2016 22.6649 45.2016 22.826C45.2016 22.9873 45.2289 23.1355 45.2838 23.2712C45.3384 23.4066 45.414 23.5235 45.5103 23.6214C45.6065 23.7196 45.7191 23.7962 45.8479 23.8511C45.9767 23.906 46.116 23.9335 46.2655 23.9335C46.418 23.9335 46.549 23.9057 46.6587 23.8501C46.7682 23.7944 46.86 23.7196 46.934 23.6259V23.8785H47.3983V21.7736H46.934ZM46.9163 23.0942C46.8852 23.1763 46.8415 23.2473 46.7852 23.3074C46.7289 23.3673 46.6616 23.4147 46.5831 23.4491C46.5047 23.4835 46.4173 23.5007 46.321 23.5007C46.2204 23.5007 46.1303 23.4828 46.0512 23.4469C45.972 23.4111 45.9048 23.3628 45.8501 23.3018C45.7953 23.241 45.7531 23.1697 45.7235 23.0875C45.6939 23.0056 45.6792 22.9184 45.6792 22.826C45.6792 22.7337 45.6939 22.6466 45.7235 22.5646C45.7531 22.4826 45.7953 22.4111 45.8501 22.3503C45.9048 22.2897 45.972 22.2413 46.0512 22.2054C46.1303 22.1695 46.2204 22.1516 46.321 22.1516C46.4173 22.1516 46.5047 22.1688 46.5831 22.2033C46.6616 22.2376 46.7289 22.2848 46.7852 22.3447C46.8415 22.4051 46.8852 22.4759 46.9163 22.558C46.9473 22.6401 46.9629 22.7293 46.9629 22.826C46.9629 22.9227 46.9473 23.0121 46.9163 23.0942Z" fill="#21728A"/>
<path d="M38.4106 23.4589C38.3358 23.4867 38.2622 23.5007 38.1896 23.5007C38.1421 23.5007 38.0981 23.4935 38.0574 23.4786C38.0167 23.4641 37.9811 23.4411 37.9508 23.4095C37.9204 23.378 37.8964 23.3374 37.8786 23.2876C37.8609 23.2378 37.8518 23.1777 37.8518 23.1074V22.1911H38.5976V21.7736H37.8518V21.1363H37.3855V21.7736H36.9613V22.1911H37.3855V23.1162C37.3855 23.3961 37.4525 23.602 37.5865 23.7346C37.7205 23.8671 37.9082 23.9335 38.1496 23.9335C38.2843 23.9335 38.4054 23.913 38.5128 23.872C38.5837 23.8449 38.6495 23.8139 38.7112 23.7797L38.5524 23.3952C38.5075 23.4189 38.4603 23.4403 38.4106 23.4589Z" fill="#21728A"/>
<path d="M42.6017 21.7188C42.4714 21.7188 42.3537 21.7423 42.2485 21.7892C42.1433 21.8361 42.0553 21.9488 41.9842 22.0498V21.7738H41.5628V23.8788H41.9886V22.7208C41.9886 22.6314 42.0012 22.5516 42.0264 22.4813C42.0516 22.4108 42.0863 22.3516 42.1308 22.3033C42.1752 22.255 42.2284 22.2185 42.2908 22.1935C42.3529 22.1687 42.421 22.1562 42.4951 22.1562C42.5514 22.1562 42.612 22.1628 42.6772 22.1761C42.7104 22.1826 42.7414 22.191 42.7705 22.2007L42.9078 21.7613C42.8705 21.7496 42.8327 21.7398 42.7938 21.7332C42.7368 21.7235 42.6727 21.7188 42.6017 21.7188Z" fill="#21728A"/>
<path d="M49.0549 21.7186C48.9247 21.7186 48.8069 21.7421 48.7017 21.789C48.5967 21.8359 48.5085 21.9486 48.4374 22.0496V21.7736H48.016V23.8785H48.442V22.7206C48.442 22.6311 48.4544 22.5514 48.4797 22.4811C48.5048 22.4106 48.5396 22.3514 48.5841 22.3031C48.6284 22.2548 48.6818 22.2182 48.744 22.1933C48.8062 22.1685 48.8743 22.156 48.9483 22.156C49.0046 22.156 49.0652 22.1626 49.1304 22.1758C49.1637 22.1824 49.1948 22.1908 49.2238 22.2005L49.361 21.7611C49.3238 21.7494 49.286 21.7396 49.247 21.7329C49.19 21.7233 49.126 21.7186 49.0549 21.7186Z" fill="#21728A"/>
<path d="M51.2231 20.9178V22.0283C51.1491 21.9347 51.0573 21.8596 50.9478 21.8032C50.8381 21.7468 50.7071 21.7186 50.5546 21.7186C50.405 21.7186 50.2658 21.7461 50.137 21.801C50.0082 21.8559 49.8956 21.9324 49.7995 22.0307C49.7031 22.1288 49.6276 22.2457 49.5728 22.381C49.518 22.5165 49.4906 22.6648 49.4906 22.826C49.4906 22.9872 49.518 23.1355 49.5728 23.2711C49.6276 23.4065 49.7031 23.5234 49.7995 23.6214C49.8956 23.7196 50.0082 23.7961 50.137 23.851C50.2658 23.906 50.405 23.9335 50.5546 23.9335C50.7071 23.9335 50.8381 23.9056 50.9478 23.85C51.0573 23.7943 51.1491 23.7196 51.2231 23.6259V23.8785H51.6874V20.9178H51.2231ZM51.2054 23.0942C51.1743 23.1762 51.1306 23.2473 51.0743 23.3074C51.018 23.3673 50.9507 23.4146 50.8723 23.449C50.7938 23.4835 50.7064 23.5006 50.6101 23.5006C50.5094 23.5006 50.4195 23.4827 50.3403 23.4469C50.261 23.411 50.194 23.3627 50.1392 23.3018C50.0844 23.241 50.0423 23.1696 50.0127 23.0875C49.983 23.0055 49.9682 22.9183 49.9682 22.826C49.9682 22.7337 49.983 22.6465 50.0127 22.5645C50.0423 22.4825 50.0844 22.4111 50.1392 22.3503C50.194 22.2896 50.261 22.2412 50.3403 22.2053C50.4195 22.1695 50.5094 22.1516 50.6101 22.1516C50.7064 22.1516 50.7938 22.1688 50.8723 22.2032C50.9507 22.2375 51.018 22.2847 51.0743 22.3447C51.1306 22.4051 51.1743 22.4759 51.2054 22.558C51.2365 22.64 51.2521 22.7292 51.2521 22.826C51.2521 22.9226 51.2365 23.012 51.2054 23.0942Z" fill="#21728A"/>
<path d="M43.7127 22.3395C43.7719 22.2804 43.8422 22.234 43.9237 22.2012C44.0052 22.1682 44.0932 22.1518 44.188 22.1518C44.2922 22.1518 44.3892 22.168 44.4788 22.2012C44.5654 22.2329 44.6404 22.2774 44.7041 22.3339L44.9276 21.9662C44.8438 21.9 44.7494 21.8457 44.6444 21.8035C44.5044 21.7471 44.3523 21.7188 44.188 21.7188C44.0236 21.7188 43.8715 21.7471 43.7316 21.8035C43.5916 21.8598 43.471 21.9374 43.3695 22.0363C43.2681 22.1354 43.1885 22.2522 43.1308 22.3867C43.0729 22.5215 43.0441 22.6682 43.0441 22.8262C43.0441 22.9844 43.0729 23.131 43.1308 23.2659C43.1885 23.4006 43.2681 23.5173 43.3695 23.6162C43.471 23.7151 43.5916 23.7928 43.7316 23.8492C43.8715 23.9055 44.0236 23.9338 44.188 23.9338C44.3523 23.9338 44.5044 23.9055 44.6444 23.8492C44.7494 23.8069 44.8438 23.7526 44.9276 23.6862L44.7041 23.3185C44.6404 23.3753 44.5654 23.4195 44.4788 23.4513C44.3892 23.4843 44.2922 23.5009 44.188 23.5009C44.0932 23.5009 44.0052 23.4843 43.9237 23.4513C43.8422 23.4186 43.7719 23.3724 43.7127 23.313C43.6534 23.2537 43.6068 23.1827 43.5728 23.0999C43.5386 23.0172 43.5217 22.926 43.5217 22.8262C43.5217 22.7266 43.5386 22.6355 43.5728 22.5527C43.6068 22.4699 43.6534 22.3989 43.7127 22.3395Z" fill="#21728A"/>
<path d="M52.8231 23.6335C52.803 23.6141 52.7794 23.5987 52.7524 23.5873C52.7254 23.5759 52.6963 23.5703 52.6655 23.5703C52.6339 23.5703 52.6043 23.5759 52.577 23.5873C52.5496 23.5987 52.5258 23.6141 52.5057 23.6335C52.4856 23.6529 52.4698 23.6756 52.4583 23.7016C52.447 23.7274 52.4412 23.7552 52.4412 23.785C52.4412 23.8142 52.447 23.8419 52.4583 23.8681C52.4698 23.8942 52.4856 23.9172 52.5057 23.9369C52.5258 23.9563 52.5496 23.9718 52.577 23.9831C52.6043 23.9945 52.6339 24 52.6655 24C52.6963 24 52.7254 23.9945 52.7524 23.9831C52.7794 23.9718 52.803 23.9563 52.8231 23.9369C52.8433 23.9172 52.8592 23.8942 52.8708 23.8681C52.8824 23.8419 52.8881 23.8142 52.8881 23.785C52.8881 23.7552 52.8824 23.7274 52.8708 23.7016C52.8592 23.6756 52.8433 23.6529 52.8231 23.6335Z" fill="#21728A"/>
<path d="M52.8089 23.8455C52.8008 23.8643 52.7898 23.8808 52.7759 23.8947C52.7618 23.9088 52.7454 23.9199 52.7263 23.9281C52.7072 23.9362 52.687 23.9402 52.6655 23.9402C52.6432 23.9402 52.6226 23.9362 52.6033 23.9281C52.5842 23.9199 52.5675 23.9088 52.5533 23.8947C52.5392 23.8808 52.528 23.8643 52.52 23.8455C52.5119 23.8269 52.5079 23.8066 52.5079 23.785C52.5079 23.7635 52.5119 23.7434 52.52 23.7244C52.528 23.7054 52.5392 23.6892 52.5533 23.6753C52.5675 23.6613 52.5842 23.6503 52.6033 23.6422C52.6226 23.6342 52.6432 23.63 52.6655 23.63C52.687 23.63 52.7072 23.6342 52.7263 23.6422C52.7454 23.6503 52.7618 23.6613 52.7759 23.6753C52.7898 23.6892 52.8008 23.7054 52.8089 23.7244C52.8169 23.7434 52.821 23.7635 52.821 23.785C52.821 23.8066 52.8169 23.8269 52.8089 23.8455Z" fill="#21728A"/>
<path d="M52.7439 23.7919C52.7537 23.7818 52.7587 23.7691 52.7587 23.7537C52.7587 23.7343 52.7517 23.7187 52.7381 23.7072C52.7243 23.6956 52.7044 23.6898 52.6779 23.6898H52.5822V23.8799H52.6364V23.8136H52.6427L52.6962 23.8799H52.7611L52.7012 23.8116C52.7198 23.8085 52.734 23.8019 52.7439 23.7919Z" fill="#21728A"/>
<path d="M52.677 23.7711H52.6364V23.7362H52.677C52.6853 23.7362 52.6918 23.7376 52.6962 23.7403C52.7008 23.7434 52.703 23.7477 52.703 23.7537C52.703 23.7602 52.7008 23.7646 52.6962 23.7671C52.6918 23.7696 52.6853 23.7711 52.677 23.7711Z" fill="#21728A"/>
<path d="M52.4973 16.2249V15.9928H52.5923V15.9289H52.3322V15.9928H52.4271V16.2249H52.4973Z" fill="#21728A"/>
<path d="M52.8255 16.1186L52.7512 15.9289H52.6507V16.2249H52.7209V16.0201L52.7882 16.1967H52.8626L52.9298 16.0195V16.2249H53V15.9289H52.8995L52.8255 16.1186Z" fill="#21728A"/>
<path d="M35.021 19.8673C36.6616 19.8673 38.1897 19.3805 39.4625 18.5429C39.3965 18.4914 39.3294 18.439 39.2667 18.3866C37.3775 16.7594 36.295 14.4067 36.295 11.9345C36.295 9.46085 37.3817 7.10831 39.2809 5.48534C39.3294 5.42979 39.3944 5.37929 39.4592 5.32467C38.1897 4.48827 36.6616 4.00024 35.02 4.00024C30.5904 4.00024 27 7.55329 27 11.9345C27 16.3164 30.5904 19.8684 35.021 19.8673Z" fill="#21728A"/>
<path d="M36.9157 11.9343C36.9157 14.3264 37.9831 16.466 39.6745 17.92C39.7718 18.0054 39.8745 18.089 39.9772 18.1682C40.0811 18.089 40.1817 18.0054 40.2801 17.92C41.9704 16.466 43.0388 14.3264 43.0388 11.9343C43.0388 9.54314 41.9715 7.40237 40.2801 5.9483C40.1828 5.86265 40.0811 5.78138 39.9772 5.70121C39.8734 5.78138 39.7729 5.86177 39.6745 5.9483C37.9831 7.40237 36.9157 9.54314 36.9157 11.9343Z" fill="#21728A"/>
<path d="M52.9546 11.9342C52.9546 7.55416 49.3641 4 44.9346 4C43.2908 4 41.7649 4.48803 40.4953 5.32444C40.5602 5.37906 40.6251 5.42956 40.6737 5.48511C42.5727 7.10807 43.6595 9.46062 43.6595 11.9342C43.6595 14.4055 42.5771 16.7559 40.6878 18.3863C40.6251 18.4388 40.558 18.4911 40.492 18.5427C41.7649 19.3803 43.2908 19.8671 44.9334 19.8671C49.3641 19.8682 52.9546 16.3162 52.9546 11.9342Z" fill="#21728A"/>
</svg>
