<svg width="236" height="177" viewBox="0 0 236 177" fill="none" xmlns="http://www.w3.org/2000/svg">
<g clip-path="url(#clip0_17573_351643)">
<path d="M75 -556.89L0 -486.369V-423.638L8 -413.265V119.702L46 159.339L236 177V-556.89H75Z" fill="#BA6618"/>
<path d="M80 -557L4 -485.762V-425.613L12 -414.747V119.702L47 157.242L236 177V-557H80Z" fill="#FF7901"/>
<g opacity="0.3" clip-path="url(#clip1_17573_351643)">
<path opacity="0.5" d="M230.894 14.724L225.714 18.58L220.608 22.492L205.216 34.116L200.036 37.9721L194.93 41.884L189.824 45.7401C188.048 47.0254 186.346 47.696 184.644 47.696C182.942 47.696 181.24 47.0813 179.538 45.7401L174.358 41.884L169.252 37.9721L164.146 34.116L158.966 30.26L153.86 26.348L148.68 22.492L143.574 18.58L138.468 14.724L133.288 10.8679L128.182 6.95597C126.48 5.67062 124.778 5 123.002 5C121.3 5 119.598 5.61473 117.896 6.95597L112.79 10.8679L107.61 14.724L92.218 26.348L87.112 30.26L81.932 34.116L66.54 45.7401C64.838 47.0254 63.136 47.696 61.434 47.696C59.658 47.696 57.956 47.0813 56.254 45.7401L4.75 6.95597C3.048 5.67062 1.34601 5 -0.355988 5C-2.058 5 -3.75999 5.61473 -5.536 6.95597L-10.642 10.8679L-15.748 14.724L-20.928 18.58L-26.034 22.492L-31.214 26.348L-36.32 30.26L-41.426 34.116L-46.606 37.9721L-51.712 41.884L-56.892 45.7401C-58.594 47.0254 -60.296 47.696 -61.998 47.696C-63.7 47.696 -65.402 47.0813 -67.104 45.7401L-72.284 41.884L-77.39 37.9721L-82.57 34.116L-87.676 30.26L-92.782 26.348L-97.962 22.492L-103.068 18.58L-108.248 14.724L-113.354 10.8679L-118.46 6.95597C-120.236 5.67062 -121.938 5 -123.64 5C-125.416 5 -127.118 5.61473 -128.82 6.95597L-134 10.8679L-134 34.116L-128.82 30.26C-127.118 28.9187 -125.416 28.304 -123.714 28.304C-122.012 28.304 -120.31 28.9746 -118.534 30.26L-67.178 69.044C-65.476 70.3294 -63.774 71 -62.072 71C-60.37 71 -58.668 70.3294 -56.966 69.044L-5.61 30.26C-3.834 28.9187 -2.132 28.304 -0.429993 28.304C1.272 28.304 2.974 28.9746 4.67599 30.26L9.856 34.116L14.962 37.9721L20.068 41.884L25.248 45.7401L30.354 49.652L35.534 53.508L40.64 57.3641L45.746 61.276L50.926 65.1321L56.032 69.044C57.734 70.3294 59.436 71 61.212 71C62.914 71 64.616 70.3294 66.318 69.044L71.424 65.1321L76.604 61.276L81.71 57.3641L86.89 53.508L91.996 49.652L97.102 45.7401L102.282 41.884L107.388 37.9721L112.568 34.116L117.674 30.26C119.376 28.9187 121.078 28.304 122.78 28.304C124.556 28.304 126.258 28.9746 127.96 30.26L133.066 34.116L138.246 37.9721L143.352 41.884L158.744 53.508L163.924 57.3641L169.03 61.276L179.316 69.044C181.018 70.3294 182.72 71 184.422 71C186.124 71 187.826 70.3294 189.602 69.044L194.708 65.1321L210.1 53.508L215.28 49.652L220.386 45.7401L236 34.116L236 10.8679L230.894 14.724Z" fill="#EAE160"/>
</g>
</g>
<defs>
<clipPath id="clip0_17573_351643">
<rect width="236" height="177" fill="white"/>
</clipPath>
<clipPath id="clip1_17573_351643">
<rect width="224" height="66" fill="white" transform="translate(12 5)"/>
</clipPath>
</defs>
</svg>
