<svg width="236" height="172" viewBox="0 0 236 172" fill="none" xmlns="http://www.w3.org/2000/svg">
<g clip-path="url(#clip0_17573_351644)">
<path d="M75 0.109863L0 70.6312V133.362L8 143.735V676.702L46 716.339L236 734V0.109863H75Z" fill="#BA6618"/>
<path d="M80 0L4 71.238V131.387L12 142.253V676.702L47 714.242L236 734V0H80Z" fill="#FF7901"/>
<g opacity="0.5">
<mask id="mask0_17573_351644" style="mask-type:alpha" maskUnits="userSpaceOnUse" x="4" y="60" width="232" height="109">
<path d="M15.5 60.3L4 71.1991V131.526L12 142.425V168.3H236V61.1776L15.5 60.3Z" fill="#FF7901"/>
</mask>
<g mask="url(#mask0_17573_351644)">
<path d="M232.795 107.778L229.447 110.456L226.147 113.172L216.199 121.243L212.851 123.921L209.551 126.637L206.251 129.314C205.103 130.207 204.003 130.672 202.903 130.672C201.802 130.672 200.702 130.246 199.602 129.314L196.254 126.637L192.954 123.921L189.654 121.243L186.306 118.566L183.006 115.849L179.658 113.172L176.358 110.456L173.057 107.778L169.709 105.101L166.409 102.384C165.309 101.492 164.209 101.026 163.061 101.026C161.961 101.026 160.861 101.453 159.761 102.384L156.461 105.101L153.113 107.778L143.165 115.849L139.864 118.566L136.516 121.243L126.568 129.314C125.468 130.207 124.368 130.672 123.268 130.672C122.12 130.672 121.02 130.246 119.92 129.314L86.631 102.384C85.5309 101.492 84.4309 101.026 83.3308 101.026C82.2307 101.026 81.1307 101.453 79.9828 102.384L76.6826 105.101L73.3824 107.778L70.0344 110.456L66.7342 113.172L63.3862 115.849L60.086 118.566L56.7859 121.243L53.4379 123.921L50.1377 126.637L46.7897 129.314C45.6896 130.207 44.5896 130.672 43.4895 130.672C42.3894 130.672 41.2894 130.246 40.1893 129.314L36.8413 126.637L33.5411 123.921L30.1931 121.243L26.8929 118.566L23.5928 115.849L20.2447 113.172L16.9446 110.456L13.5966 107.778L10.2964 105.101L6.9962 102.384C5.84831 101.492 4.74825 101.026 3.64819 101.026C2.54813 101.026 1.44807 101.453 0.348009 102.384L-3 105.101L-3 121.243L0.348009 118.566C1.44807 117.634 2.54813 117.207 3.64819 117.207C4.74825 117.207 5.84831 117.673 6.9962 118.566L40.1893 145.495C41.2894 146.388 42.3894 146.854 43.4895 146.854C44.5896 146.854 45.6896 146.388 46.7897 145.495L79.9828 118.566C81.1307 117.634 82.2307 117.207 83.3308 117.207C84.4309 117.207 85.5309 117.673 86.631 118.566L89.979 121.243L93.2792 123.921L96.5793 126.637L99.9274 129.314L103.228 132.031L106.576 134.708L109.876 137.385L113.176 140.102L116.524 142.779L119.824 145.495C120.924 146.388 122.024 146.854 123.172 146.854C124.272 146.854 125.372 146.388 126.472 145.495L129.772 142.779L133.12 140.102L136.421 137.385L139.769 134.708L143.069 132.031L146.369 129.314L149.717 126.637L153.017 123.921L156.365 121.243L159.665 118.566C160.765 117.634 161.866 117.207 162.966 117.207C164.113 117.207 165.214 117.673 166.314 118.566L169.614 121.243L172.962 123.921L176.262 126.637L186.21 134.708L189.558 137.385L192.859 140.102L199.507 145.495C200.607 146.388 201.707 146.854 202.807 146.854C203.907 146.854 205.007 146.388 206.155 145.495L209.455 142.779L219.403 134.708L222.751 132.031L226.052 129.314L236 121.243L236 105.101L232.795 107.778Z" fill="#ED5312"/>
<path d="M232.795 127.38L229.447 130.057L226.147 132.774L216.199 140.845L212.851 143.522L209.551 146.238L206.251 148.916C205.103 149.808 204.003 150.274 202.903 150.274C201.802 150.274 200.702 149.847 199.602 148.916L196.254 146.238L192.954 143.522L189.654 140.845L186.306 138.167L183.006 135.451L179.658 132.774L176.358 130.057L173.057 127.38L169.709 124.702L166.409 121.986C165.309 121.094 164.209 120.628 163.061 120.628C161.961 120.628 160.861 121.055 159.761 121.986L156.461 124.702L153.113 127.38L143.165 135.451L139.864 138.167L136.516 140.845L126.568 148.916C125.468 149.808 124.368 150.274 123.268 150.274C122.12 150.274 121.02 149.847 119.92 148.916L86.631 121.986C85.5309 121.094 84.4309 120.628 83.3308 120.628C82.2307 120.628 81.1307 121.055 79.9828 121.986L76.6826 124.702L73.3824 127.38L70.0344 130.057L66.7342 132.774L63.3862 135.451L60.086 138.167L56.7859 140.845L53.4379 143.522L50.1377 146.238L46.7897 148.916C45.6896 149.808 44.5896 150.274 43.4895 150.274C42.3894 150.274 41.2894 149.847 40.1893 148.916L36.8413 146.238L33.5411 143.522L30.1931 140.845L26.8929 138.167L23.5928 135.451L20.2447 132.774L16.9446 130.057L13.5966 127.38L10.2964 124.702L6.9962 121.986C5.84831 121.094 4.74825 120.628 3.64819 120.628C2.54813 120.628 1.44807 121.055 0.348009 121.986L-3 124.702L-3 140.845L0.348009 138.167C1.44807 137.236 2.54813 136.809 3.64819 136.809C4.74825 136.809 5.84831 137.275 6.9962 138.167L40.1893 165.097C41.2894 165.99 42.3894 166.455 43.4895 166.455C44.5896 166.455 45.6896 165.99 46.7897 165.097L79.9828 138.167C81.1307 137.236 82.2307 136.809 83.3308 136.809C84.4309 136.809 85.5309 137.275 86.631 138.167L89.979 140.845L93.2792 143.522L96.5793 146.238L99.9274 148.916L103.228 151.632L106.576 154.31L109.876 156.987L113.176 159.703L116.524 162.381L119.824 165.097C120.924 165.99 122.024 166.455 123.172 166.455C124.272 166.455 125.372 165.99 126.472 165.097L129.772 162.381L133.12 159.703L136.421 156.987L139.769 154.31L143.069 151.632L146.369 148.916L149.717 146.238L153.017 143.522L156.365 140.845L159.665 138.167C160.765 137.236 161.866 136.809 162.966 136.809C164.113 136.809 165.214 137.275 166.314 138.167L169.614 140.845L172.962 143.522L176.262 146.238L186.21 154.31L189.558 156.987L192.859 159.703L199.507 165.097C200.607 165.99 201.707 166.455 202.807 166.455C203.907 166.455 205.007 165.99 206.155 165.097L209.455 162.381L219.403 154.31L222.751 151.632L226.052 148.916L236 140.845L236 124.702L232.795 127.38Z" fill="#BF2C2F"/>
<path d="M232.7 88.2595L229.352 90.8855L226.052 93.5495L216.103 101.465L212.755 104.091L209.455 106.755L206.155 109.381C205.007 110.257 203.907 110.713 202.807 110.713C201.707 110.713 200.607 110.295 199.507 109.381L196.159 106.755L192.859 104.091L189.558 101.465L186.21 98.8395L182.91 96.1755L179.562 93.5495L176.262 90.8855L172.962 88.2595L169.614 85.6336L166.314 82.9695C165.214 82.0942 164.113 81.6375 162.966 81.6375C161.866 81.6375 160.765 82.0561 159.665 82.9695L156.365 85.6336L153.017 88.2595L143.069 96.1755L139.769 98.8395L136.421 101.465L126.472 109.381C125.372 110.257 124.272 110.713 123.172 110.713C122.024 110.713 120.924 110.295 119.824 109.381L86.631 82.9695C85.5309 82.0942 84.4309 81.6375 83.3308 81.6375C82.2307 81.6375 81.1307 82.0561 79.9828 82.9695L76.6826 85.6336L73.3824 88.2595L70.0344 90.8855L66.7342 93.5495L63.3862 96.1755L60.086 98.8395L56.7859 101.465L53.4379 104.091L50.1377 106.755L46.7897 109.381C45.6896 110.257 44.5896 110.713 43.4895 110.713C42.3894 110.713 41.2894 110.295 40.1893 109.381L36.8413 106.755L33.5411 104.091L30.1931 101.465L26.8929 98.8395L23.5928 96.1755L20.2447 93.5495L16.9446 90.8855L13.5966 88.2595L10.2964 85.6336L6.9962 82.9695C5.84831 82.0942 4.74825 81.6375 3.64819 81.6375C2.54813 81.6375 1.44807 82.0561 0.348009 82.9695L-3 85.6336L-3 101.465L0.348009 98.8395C1.44807 97.9261 2.54813 97.5075 3.64819 97.5075C4.74825 97.5075 5.84831 97.9642 6.9962 98.8395L40.1893 125.251C41.2894 126.127 42.3894 126.583 43.4895 126.583C44.5896 126.583 45.6896 126.127 46.7897 125.251L79.9828 98.8395C81.1307 97.9261 82.2307 97.5075 83.3308 97.5075C84.4309 97.5075 85.5309 97.9642 86.631 98.8395L89.979 101.465L93.2792 104.091L96.5793 106.755L99.9274 109.381L103.228 112.045L106.576 114.671L109.876 117.297L113.176 119.961L116.524 122.587L119.824 125.251C120.924 126.127 122.024 126.583 123.172 126.583C124.272 126.583 125.372 126.127 126.472 125.251L129.772 122.587L133.12 119.961L136.421 117.297L139.769 114.671L143.069 112.045L146.369 109.381L149.717 106.755L153.017 104.091L156.365 101.465L159.665 98.8395C160.765 97.9261 161.866 97.5075 162.966 97.5075C164.113 97.5075 165.214 97.9642 166.314 98.8395L169.614 101.465L172.962 104.091L176.262 106.755L186.21 114.671L189.558 117.297L192.859 119.961L199.507 125.251C200.607 126.127 201.707 126.583 202.807 126.583C203.907 126.583 205.007 126.127 206.155 125.251L209.455 122.587L219.403 114.671L222.751 112.045L226.052 109.381L236 101.465L236 85.6336L232.7 88.2595Z" fill="#FFA227"/>
<path d="M232.702 68.3798L229.356 71.1602L226.058 73.9809L216.115 82.3626L212.769 85.143L209.471 87.9637L206.173 90.7442C205.026 91.671 203.926 92.1545 202.827 92.1545C201.727 92.1545 200.628 91.7113 199.529 90.7442L196.183 87.9637L192.884 85.143L189.586 82.3626L186.24 79.5821L182.942 76.7614L179.596 73.9809L176.298 71.1602L173 68.3798L169.654 65.5993L166.355 62.7786C165.256 61.8518 164.157 61.3682 163.009 61.3682C161.91 61.3682 160.811 61.8115 159.711 62.7786L156.413 65.5993L153.067 68.3798L143.125 76.7614L139.826 79.5821L136.48 82.3626L126.538 90.7442C125.439 91.671 124.339 92.1545 123.24 92.1545C122.093 92.1545 120.993 91.7113 119.894 90.7442L86.625 62.7786C85.5256 61.8518 84.4262 61.3682 83.3268 61.3682C82.2274 61.3682 81.128 61.8115 79.9808 62.7786L76.6826 65.5993L73.3844 68.3798L70.0384 71.1602L66.7402 73.9809L63.3942 76.7614L60.096 79.5821L56.7978 82.3626L53.4518 85.143L50.1536 87.9637L46.8076 90.7442C45.7082 91.671 44.6088 92.1545 43.5094 92.1545C42.41 92.1545 41.3106 91.7113 40.2112 90.7442L36.8652 87.9637L33.567 85.143L30.221 82.3626L26.9228 79.5821L23.6246 76.7614L20.2786 73.9809L16.9804 71.1602L13.6344 68.3798L10.3362 65.5993L7.038 62.7786C5.8908 61.8518 4.7914 61.3682 3.692 61.3682C2.5448 61.3682 1.4454 61.8115 0.346 62.7786L-3 65.5993L-3 82.3626L0.346 79.5821C1.4454 78.615 2.5448 78.1718 3.6442 78.1718C4.7436 78.1718 5.843 78.6553 6.9902 79.5821L40.1634 107.548C41.2628 108.475 42.3622 108.958 43.4616 108.958C44.561 108.958 45.6604 108.475 46.7598 107.548L79.933 79.5821C81.0802 78.615 82.1796 78.1718 83.279 78.1718C84.3784 78.1718 85.4778 78.6553 86.5772 79.5821L89.9232 82.3626L93.2214 85.143L96.5196 87.9637L99.8656 90.7442L103.164 93.5649L106.51 96.3454L109.808 99.1258L113.106 101.947L116.452 104.727L119.75 107.548C120.85 108.475 121.949 108.958 123.096 108.958C124.196 108.958 125.295 108.475 126.395 107.548L129.693 104.727L133.039 101.947L136.337 99.1258L139.683 96.3454L142.981 93.5649L146.279 90.7442L149.625 87.9637L152.924 85.143L156.27 82.3626L159.568 79.5821C160.667 78.615 161.767 78.1718 162.866 78.1718C164.013 78.1718 165.113 78.6553 166.212 79.5821L169.51 82.3626L172.856 85.143L176.154 87.9637L186.097 96.3454L189.443 99.1258L192.741 101.947L199.385 107.548C200.485 108.475 201.584 108.958 202.683 108.958C203.783 108.958 204.882 108.475 206.029 107.548L209.328 104.727L219.27 96.3454L222.616 93.5649L225.914 90.7442L236 82.3626L236 65.5993L232.702 68.3798Z" fill="#EAE160"/>
</g>
</g>
</g>
<defs>
<clipPath id="clip0_17573_351644">
<rect width="236" height="172" fill="white"/>
</clipPath>
</defs>
</svg>
