<svg width="80" height="28" viewBox="0 0 80 28" fill="none" xmlns="http://www.w3.org/2000/svg">
<path d="M36.5735 8.20418L33.901 19.4099H37.1334L39.8059 8.20418H36.5735Z" fill="#21728A"/>
<path d="M31.7909 8.20418L28.429 15.831L27.0672 9.34625C26.907 8.62236 26.2768 8.20418 25.5767 8.20418H20.0761L20 8.52945C21.128 8.75 22.4115 9.10407 23.1887 9.48287C23.6643 9.71496 23.8 9.91731 23.9561 10.467L26.5334 19.4099H29.9502L35.187 8.20418L31.7909 8.20418Z" fill="#21728A"/>
<path d="M44.0453 11.3092C44.0562 10.9078 44.4828 10.4802 45.4165 10.3708C45.8791 10.3173 47.1568 10.2743 48.6042 10.8725L49.1705 8.49498C48.3927 8.24276 47.3921 7.99988 46.1472 7.99988C42.9518 7.99988 40.7041 9.52225 40.6862 11.7035C40.6652 13.3173 42.2917 14.2167 43.5148 14.7539C44.7747 15.3028 45.1971 15.6556 45.1912 16.146C45.1823 16.8978 44.1852 17.2309 43.2581 17.2431C41.6324 17.2661 40.69 16.8489 39.9384 16.535L39.3517 18.9913C40.1079 19.3022 41.5017 19.5724 42.9453 19.5861C46.3421 19.5861 48.5639 18.0812 48.5738 15.7514C48.5874 12.7945 44.0154 12.6307 44.0453 11.3092Z" fill="#21728A"/>
<path d="M57.3891 8.20418H54.6318C54.0098 8.20418 53.4873 8.52799 53.2554 9.02575L48.4052 19.4099H51.7996L52.4728 17.7361H56.6198L57.0116 19.4099H60L57.3891 8.20418ZM53.4035 15.4397L55.1055 11.2316L56.0832 15.4397H53.4035Z" fill="#21728A"/>
</svg>
